<svg width="62" height="19" viewBox="0 0 62 19" fill="none" xmlns="http://www.w3.org/2000/svg">
<g clip-path="url(#clip0_2521_276)">
<path d="M14.9167 12.3371V0.64209H22.2713V2.97671H17.5473V5.13048H21.9042V7.4651H17.5473V10.0134H22.2713V12.3481H14.9167V12.3371Z" fill="black"/>
<mask id="mask0_2521_276" style="mask-type:luminance" maskUnits="userSpaceOnUse" x="14" y="0" width="9" height="13">
<path d="M14.9167 12.3376V0.642578H22.2713V2.9772H17.5473V5.13097H21.9042V7.46559H17.5473V10.0139H22.2713V12.3486H14.9167V12.3376Z" fill="black"/>
</mask>
<g mask="url(#mask0_2521_276)">
<g style="mix-blend-mode:hue">
<path d="M77.3765 -16.9175H-22.6121V29.8955H77.3765V-16.9175Z" fill="black"/>
</g>
</g>
<path d="M25.6685 0.641113H28.3703L30.8474 9.94671L33.3245 0.641113H36.0263L32.7271 12.3361H28.9731L25.6685 0.641113Z" fill="black"/>
<mask id="mask1_2521_276" style="mask-type:luminance" maskUnits="userSpaceOnUse" x="25" y="0" width="12" height="13">
<path d="M25.6687 0.641113H28.3705L30.8476 9.94671L33.3247 0.641113H36.0265L32.7274 12.3361H28.9733L25.6687 0.641113Z" fill="black"/>
</mask>
<g mask="url(#mask1_2521_276)">
<g style="mix-blend-mode:hue">
<path d="M77.2173 -16.9175H-22.7712V29.8955H77.2173V-16.9175Z" fill="black"/>
</g>
</g>
<path d="M11.4367 12.3366H8.73487L6.25777 3.0365L3.78066 12.3366H1.07886L4.38349 0.641602H8.13752L11.4367 12.3366Z" fill="black"/>
<mask id="mask2_2521_276" style="mask-type:luminance" maskUnits="userSpaceOnUse" x="1" y="0" width="11" height="13">
<path d="M11.4377 12.3361H8.73585L6.25874 3.03602L3.78164 12.3361H1.07983L4.38447 0.641113H8.1385L11.4377 12.3361Z" fill="black"/>
</mask>
<g mask="url(#mask2_2521_276)">
<g style="mix-blend-mode:hue">
<path d="M78.6807 -11.0703H-21.3079V35.7426H78.6807V-11.0703Z" fill="black"/>
</g>
</g>
<path d="M47.1009 12.3366V0.641602H39.7463V2.97622H44.4704V5.12999H40.1135V7.46461H44.4704V10.013H39.7463V12.3476H47.1009V12.3366Z" fill="black"/>
<mask id="mask3_2521_276" style="mask-type:luminance" maskUnits="userSpaceOnUse" x="39" y="0" width="9" height="13">
<path d="M47.1009 12.3361V0.641113H39.7463V2.97573H44.4704V5.1295H40.1135V7.46412H44.4704V10.0125H39.7463V12.3471H47.1009V12.3361Z" fill="black"/>
</mask>
<g mask="url(#mask3_2521_276)">
<g style="mix-blend-mode:hue">
<path d="M77.3745 -16.9175H-22.614V29.8955H77.3745V-16.9175Z" fill="black"/>
</g>
</g>
<path d="M60.8842 12.3366H58.1824L55.7053 3.03102L53.2282 12.3366H50.5264L53.8255 0.641602H57.5795L60.8787 12.3366H60.8842Z" fill="black"/>
<mask id="mask4_2521_276" style="mask-type:luminance" maskUnits="userSpaceOnUse" x="50" y="0" width="11" height="13">
<path d="M60.8864 12.3366H58.1846L55.7075 3.03102L53.2304 12.3366H50.5286L53.8277 0.641602H57.5817L60.8809 12.3366H60.8864Z" fill="black"/>
</mask>
<g mask="url(#mask4_2521_276)">
<g style="mix-blend-mode:hue">
<path d="M77.2391 -14.3745H-22.7495V32.4384H77.2391V-14.3745Z" fill="black"/>
</g>
</g>
<path d="M0.764648 18.3435L1.31268 16.6392H1.63602L2.21145 18.3435H1.98676L1.84427 17.9325H1.12635L0.989342 18.3435H0.764648ZM1.18663 17.7407H1.79495L1.47709 16.8365L1.18663 17.7407Z" fill="black"/>
<path d="M2.67236 17.8668V17.116C2.67236 16.9406 2.72169 16.8146 2.81485 16.7324C2.90802 16.6502 3.06147 16.6118 3.26972 16.6118C3.42865 16.6118 3.58758 16.6283 3.74651 16.6666L3.71911 16.853C3.5547 16.8255 3.40125 16.8091 3.25876 16.8091C3.11627 16.8091 3.0231 16.831 2.97378 16.8804C2.91898 16.9297 2.89706 17.0064 2.89706 17.127V17.8559C2.89706 17.9161 2.89706 17.96 2.9135 17.9983C2.92446 18.0367 2.9409 18.0696 2.9683 18.097C2.9957 18.1244 3.02858 18.1463 3.07791 18.1573C3.12723 18.1682 3.18203 18.1737 3.25876 18.1737C3.36288 18.1737 3.47249 18.1627 3.57662 18.1408V17.5599H3.79035V18.2943C3.62046 18.3436 3.43961 18.3655 3.2478 18.3655C3.14367 18.3655 3.05051 18.3546 2.97378 18.3326C2.89706 18.3107 2.84225 18.2778 2.79841 18.234C2.75457 18.1901 2.72717 18.1353 2.70525 18.0751C2.6888 18.0148 2.67784 17.9435 2.67784 17.8613L2.67236 17.8668Z" fill="black"/>
<path d="M4.41442 18.3435V16.6392H5.41732V16.8365H4.63363V17.368H5.36251V17.5653H4.63363V18.1463H5.41732V18.3435H4.40894H4.41442Z" fill="black"/>
<path d="M6.02075 18.3435V16.6392H6.32217L7.06749 18.0969V16.6392H7.27575V18.3435H6.97433L6.229 16.8913V18.3435H6.02075Z" fill="black"/>
<path d="M7.89966 17.8667V17.1159C7.89966 16.9515 7.9435 16.8254 8.03667 16.7432C8.12983 16.661 8.2778 16.6172 8.48057 16.6172C8.6395 16.6172 8.78199 16.6336 8.90804 16.661L8.88612 16.8528C8.74363 16.8309 8.6121 16.8145 8.48605 16.8145C8.34904 16.8145 8.2504 16.8364 8.1956 16.8857C8.14079 16.935 8.11339 17.0118 8.11339 17.1323V17.8612C8.11339 17.9818 8.14079 18.064 8.1956 18.1078C8.2504 18.1517 8.34904 18.1791 8.48605 18.1791C8.6121 18.1791 8.74363 18.1681 8.88612 18.1407L8.90804 18.3325C8.78199 18.3599 8.6395 18.3764 8.48057 18.3764C8.2778 18.3764 8.12983 18.3325 8.03667 18.2503C7.9435 18.1681 7.89966 18.0421 7.89966 17.8777V17.8667Z" fill="black"/>
<path d="M9.49487 18.3435V16.6392H9.71409V18.3435H9.49487Z" fill="black"/>
<path d="M10.2403 18.3435L10.7884 16.6392H11.1117L11.6871 18.3435H11.4625L11.32 17.9325H10.5966L10.4596 18.3435H10.2349H10.2403ZM10.6623 17.7407H11.2706L10.9528 16.8365L10.6623 17.7407Z" fill="black"/>
<path d="M12.1418 18.2777L12.1802 18.0969C12.3391 18.1462 12.4981 18.1736 12.657 18.1736C12.7282 18.1736 12.783 18.1736 12.8269 18.1626C12.8707 18.1517 12.9036 18.1407 12.9255 18.1133C12.9475 18.0914 12.9694 18.064 12.9749 18.0311C12.9858 17.9982 12.9858 17.9599 12.9858 17.9051V17.8448C12.9858 17.8448 12.9858 17.8119 12.9858 17.7955C12.9858 17.7735 12.9858 17.7626 12.9803 17.7516C12.9749 17.7407 12.9749 17.7297 12.9639 17.7187C12.9584 17.7023 12.9529 17.6968 12.942 17.6913C12.9365 17.6913 12.9255 17.6804 12.9091 17.6694C12.8927 17.6584 12.8817 17.653 12.8652 17.6475C12.8488 17.6475 12.8269 17.6365 12.805 17.6256C12.7776 17.6146 12.7556 17.6091 12.7282 17.6036C12.7063 17.5982 12.6734 17.5927 12.6351 17.5817C12.5638 17.5653 12.5035 17.5488 12.4597 17.5324C12.4104 17.5214 12.372 17.505 12.3337 17.4831C12.2953 17.4612 12.2679 17.4392 12.2515 17.4173C12.2295 17.3954 12.2186 17.368 12.2021 17.3296C12.1912 17.2913 12.1802 17.2529 12.1802 17.2145C12.1802 17.1762 12.1802 17.1214 12.1802 17.0611C12.1802 16.957 12.1966 16.8748 12.2295 16.809C12.2624 16.7487 12.3172 16.6994 12.3994 16.6665C12.4816 16.6336 12.5912 16.6172 12.7282 16.6172C12.8927 16.6172 13.0461 16.6336 13.1886 16.672L13.1721 16.8583C13.0297 16.8254 12.8817 16.809 12.7337 16.809C12.6625 16.809 12.6077 16.809 12.5638 16.82C12.52 16.8254 12.4871 16.8419 12.4652 16.8638C12.4433 16.8857 12.4268 16.9076 12.4159 16.9405C12.4104 16.9734 12.4049 17.0118 12.4049 17.0666V17.1323C12.4049 17.1323 12.4049 17.1652 12.4049 17.1817C12.4049 17.1981 12.4049 17.22 12.4104 17.2255C12.4159 17.231 12.4159 17.2474 12.4213 17.2584C12.4268 17.2748 12.4323 17.2803 12.4433 17.2858C12.4487 17.2858 12.4597 17.2967 12.4761 17.3077C12.4926 17.3187 12.5035 17.3242 12.52 17.3296C12.5364 17.3351 12.5529 17.3406 12.5803 17.3461C12.6077 17.3516 12.6296 17.3625 12.6515 17.368C12.6734 17.3735 12.7063 17.379 12.7447 17.3899C12.805 17.4064 12.8543 17.4228 12.8927 17.4338C12.9365 17.4447 12.9749 17.4612 13.0077 17.4721C13.0406 17.4886 13.0735 17.4995 13.0954 17.5105C13.1173 17.5214 13.1338 17.5379 13.1557 17.5598C13.1776 17.5817 13.1831 17.5982 13.1941 17.6201C13.205 17.642 13.2105 17.6639 13.216 17.6913C13.2215 17.7187 13.2215 17.7516 13.227 17.779C13.227 17.8064 13.227 17.8448 13.227 17.8886C13.227 17.9544 13.227 18.0092 13.216 18.053C13.205 18.0969 13.1941 18.1407 13.1667 18.1791C13.1447 18.2174 13.1119 18.2503 13.068 18.2777C13.0242 18.2996 12.9749 18.3216 12.9091 18.3325C12.8433 18.349 12.7611 18.3545 12.6734 18.3545C12.4816 18.3545 12.3172 18.3216 12.1692 18.2613L12.1418 18.2777Z" fill="black"/>
<path d="M14.5854 18.3435V16.6392H15.1828C15.265 16.6392 15.3363 16.6501 15.402 16.6666C15.4678 16.683 15.5171 16.7049 15.5609 16.7378C15.6048 16.7652 15.6377 16.8036 15.6596 16.8419C15.687 16.8858 15.7034 16.9296 15.7144 16.9735C15.7254 17.0228 15.7308 17.0721 15.7308 17.1269V17.8558C15.7308 17.9106 15.7254 17.9654 15.7144 18.0092C15.7034 18.0586 15.687 18.1024 15.6596 18.1408C15.6322 18.1846 15.5993 18.2175 15.5609 18.2449C15.5171 18.2723 15.4678 18.2997 15.402 18.3161C15.3363 18.3326 15.265 18.3435 15.1828 18.3435H14.5854ZM14.8047 18.1463H15.1718C15.2979 18.1463 15.3856 18.1188 15.4349 18.0695C15.4842 18.0202 15.5116 17.9435 15.5116 17.8394V17.1434C15.5116 17.0392 15.4842 16.9625 15.4349 16.9132C15.3856 16.8639 15.2979 16.8365 15.1718 16.8365H14.8047V18.1463Z" fill="black"/>
<path d="M16.34 18.3435V16.6392H17.3429V16.8365H16.5592V17.368H17.288V17.5653H16.5592V18.1463H17.3429V18.3435H16.3345H16.34Z" fill="black"/>
<path d="M18.724 18.3435V16.6392H19.7269V16.8365H18.9432V17.368H19.6721V17.5653H18.9432V18.1463H19.7269V18.3435H18.7185H18.724Z" fill="black"/>
<path d="M20.1592 16.6392H20.3729L20.8716 18.1517L21.3703 16.6392H21.5841L21.0196 18.3435H20.7237L20.1592 16.6392Z" fill="black"/>
<path d="M22.0724 18.3435V16.6392H23.0753V16.8365H22.2916V17.368H23.0205V17.5653H22.2916V18.1463H23.0753V18.3435H22.0669H22.0724Z" fill="black"/>
<path d="M23.6777 18.3435V16.6392H23.9792L24.7245 18.0969V16.6392H24.9327V18.3435H24.6313L23.886 16.8913V18.3435H23.6777Z" fill="black"/>
<path d="M25.426 16.8365V16.6392H26.6646V16.8365H26.1549V18.3435H25.9357V16.8365H25.426Z" fill="black"/>
<path d="M27.0757 17.8504V17.127C27.0757 17.0557 27.0866 16.9845 27.1086 16.9242C27.1305 16.8639 27.1689 16.8091 27.2182 16.7598C27.2675 16.7105 27.3333 16.6721 27.41 16.6502C27.4867 16.6283 27.5854 16.6118 27.6895 16.6118C27.7772 16.6118 27.8539 16.6228 27.9197 16.6392C27.9909 16.6557 28.0457 16.6831 28.095 16.7105C28.1443 16.7433 28.1827 16.7762 28.2156 16.8201C28.2485 16.8639 28.2704 16.9132 28.2868 16.9626C28.3033 17.0119 28.3088 17.0667 28.3088 17.127V17.8504C28.3088 17.9107 28.3033 17.9655 28.2868 18.0148C28.2704 18.0641 28.2485 18.1134 28.2156 18.1573C28.1827 18.2011 28.1443 18.2395 28.095 18.2669C28.0457 18.2998 27.9909 18.3217 27.9197 18.3381C27.8484 18.3546 27.7717 18.3655 27.6895 18.3655C27.5854 18.3655 27.4867 18.3546 27.41 18.3272C27.3278 18.2998 27.262 18.2614 27.2182 18.2176C27.1689 18.1682 27.136 18.1134 27.1086 18.0531C27.0866 17.9929 27.0757 17.9271 27.0757 17.8504ZM27.2949 17.8449C27.2949 17.949 27.3278 18.0312 27.3935 18.086C27.4593 18.1408 27.558 18.1682 27.6895 18.1682C27.821 18.1682 27.9197 18.1408 27.9854 18.086C28.0512 18.0312 28.0841 17.949 28.0841 17.8449V17.1379C28.0841 17.0338 28.0512 16.9516 27.9854 16.8968C27.9197 16.842 27.821 16.8146 27.6895 16.8146C27.558 16.8146 27.4593 16.842 27.3935 16.8968C27.3278 16.9516 27.2949 17.0338 27.2949 17.1379V17.8449Z" fill="black"/>
<path d="M28.8677 18.2777L28.906 18.0969C29.065 18.1462 29.2239 18.1736 29.3828 18.1736C29.4541 18.1736 29.5089 18.1736 29.5527 18.1626C29.5966 18.1517 29.6294 18.1407 29.6514 18.1133C29.6733 18.0914 29.6952 18.064 29.7007 18.0311C29.7116 17.9982 29.7116 17.9599 29.7116 17.9051V17.8448C29.7116 17.8448 29.7116 17.8119 29.7116 17.7955C29.7116 17.7735 29.7116 17.7626 29.7062 17.7516C29.7007 17.7407 29.7007 17.7297 29.6897 17.7187C29.6842 17.7023 29.6788 17.6968 29.6678 17.6913C29.6623 17.6913 29.6514 17.6804 29.6349 17.6694C29.6185 17.6584 29.6075 17.653 29.5911 17.6475C29.5746 17.6475 29.5527 17.6365 29.5308 17.6256C29.5034 17.6146 29.4815 17.6091 29.4541 17.6036C29.4321 17.5982 29.3993 17.5927 29.3609 17.5817C29.2897 17.5653 29.2294 17.5488 29.1855 17.5324C29.1362 17.5214 29.0979 17.505 29.0595 17.4831C29.0211 17.4612 28.9937 17.4392 28.9773 17.4173C28.9554 17.3954 28.9444 17.368 28.928 17.3296C28.917 17.2913 28.906 17.2529 28.906 17.2145C28.906 17.1762 28.906 17.1214 28.906 17.0611C28.906 16.957 28.9225 16.8748 28.9554 16.809C28.9882 16.7487 29.043 16.6994 29.1253 16.6665C29.2075 16.6336 29.3171 16.6172 29.4541 16.6172C29.6185 16.6172 29.7719 16.6336 29.9144 16.672L29.898 16.8583C29.7555 16.8254 29.6075 16.809 29.4596 16.809C29.3883 16.809 29.3335 16.809 29.2897 16.82C29.2458 16.8254 29.2129 16.8419 29.191 16.8638C29.1691 16.8857 29.1527 16.9076 29.1417 16.9405C29.1362 16.9734 29.1307 17.0118 29.1307 17.0666V17.1323C29.1307 17.1323 29.1307 17.1652 29.1307 17.1817C29.1307 17.1981 29.1307 17.22 29.1362 17.2255C29.1417 17.231 29.1417 17.2474 29.1472 17.2584C29.1527 17.2748 29.1581 17.2803 29.1691 17.2858C29.1746 17.2858 29.1855 17.2967 29.202 17.3077C29.2184 17.3187 29.2294 17.3242 29.2458 17.3296C29.2623 17.3351 29.2787 17.3406 29.3061 17.3461C29.3335 17.3516 29.3554 17.3625 29.3773 17.368C29.3993 17.3735 29.4322 17.379 29.4705 17.3899C29.5308 17.4064 29.5801 17.4228 29.6185 17.4338C29.6623 17.4447 29.7007 17.4612 29.7336 17.4721C29.7665 17.4886 29.7993 17.4995 29.8213 17.5105C29.8432 17.5214 29.8596 17.5379 29.8815 17.5598C29.9035 17.5817 29.9089 17.5982 29.9199 17.6201C29.9309 17.642 29.9363 17.6639 29.9418 17.6913C29.9473 17.7187 29.9473 17.7516 29.9528 17.779C29.9528 17.8064 29.9528 17.8448 29.9528 17.8886C29.9528 17.9544 29.9528 18.0092 29.9418 18.053C29.9309 18.0969 29.9199 18.1407 29.8925 18.1791C29.8706 18.2174 29.8377 18.2503 29.7939 18.2777C29.75 18.2996 29.7007 18.3216 29.6349 18.3325C29.5692 18.349 29.487 18.3545 29.3993 18.3545C29.2075 18.3545 29.043 18.3216 28.8951 18.2613L28.8677 18.2777Z" fill="black"/>
<path d="M31.3119 18.3435V16.6392H32.3148V16.8365H31.5311V17.368H32.26V17.5653H31.5311V18.1463H32.3148V18.3435H31.3064H31.3119Z" fill="black"/>
<path d="M32.8569 18.2777L32.8953 18.0969C33.0542 18.1462 33.2132 18.1736 33.3721 18.1736C33.4433 18.1736 33.4981 18.1736 33.542 18.1626C33.5858 18.1517 33.6187 18.1407 33.6406 18.1133C33.6625 18.0914 33.6845 18.064 33.6899 18.0311C33.7009 17.9982 33.7009 17.9599 33.7009 17.9051V17.8448C33.7009 17.8448 33.7009 17.8119 33.7009 17.7955C33.7009 17.7735 33.7009 17.7626 33.6954 17.7516C33.6899 17.7407 33.6899 17.7297 33.679 17.7187C33.6735 17.7023 33.668 17.6968 33.6571 17.6913C33.6516 17.6913 33.6406 17.6804 33.6242 17.6694C33.6077 17.6584 33.5968 17.653 33.5803 17.6475C33.5639 17.6475 33.542 17.6365 33.5201 17.6256C33.4927 17.6146 33.4707 17.6091 33.4433 17.6036C33.4214 17.5982 33.3885 17.5927 33.3502 17.5817C33.2789 17.5653 33.2186 17.5488 33.1748 17.5324C33.1255 17.5214 33.0871 17.505 33.0487 17.4831C33.0104 17.4612 32.983 17.4392 32.9665 17.4173C32.9446 17.3954 32.9337 17.368 32.9172 17.3296C32.9063 17.2913 32.8953 17.2529 32.8953 17.2145C32.8953 17.1762 32.8953 17.1214 32.8953 17.0611C32.8953 16.957 32.9117 16.8748 32.9446 16.809C32.9775 16.7487 33.0323 16.6994 33.1145 16.6665C33.1967 16.6336 33.3063 16.6172 33.4433 16.6172C33.6077 16.6172 33.7612 16.6336 33.9037 16.672L33.8872 16.8583C33.7447 16.8254 33.5968 16.809 33.4488 16.809C33.3776 16.809 33.3228 16.809 33.2789 16.82C33.2351 16.8254 33.2022 16.8419 33.1803 16.8638C33.1584 16.8857 33.1419 16.9076 33.1309 16.9405C33.1255 16.9734 33.12 17.0118 33.12 17.0666V17.1323C33.12 17.1323 33.12 17.1652 33.12 17.1817C33.12 17.1981 33.12 17.22 33.1255 17.2255C33.1309 17.231 33.1309 17.2474 33.1364 17.2584C33.1419 17.2748 33.1474 17.2803 33.1584 17.2858C33.1638 17.2858 33.1748 17.2967 33.1912 17.3077C33.2077 17.3187 33.2186 17.3242 33.2351 17.3296C33.2515 17.3351 33.268 17.3406 33.2954 17.3461C33.3228 17.3516 33.3447 17.3625 33.3666 17.368C33.3885 17.3735 33.4214 17.379 33.4598 17.3899C33.5201 17.4064 33.5694 17.4228 33.6077 17.4338C33.6516 17.4447 33.6899 17.4612 33.7228 17.4721C33.7557 17.4886 33.7886 17.4995 33.8105 17.5105C33.8324 17.5214 33.8489 17.5379 33.8708 17.5598C33.8927 17.5817 33.8982 17.5982 33.9092 17.6201C33.9201 17.642 33.9256 17.6639 33.9311 17.6913C33.9366 17.7187 33.9366 17.7516 33.942 17.779C33.942 17.8064 33.942 17.8448 33.942 17.8886C33.942 17.9544 33.942 18.0092 33.9311 18.053C33.9201 18.0969 33.9092 18.1407 33.8818 18.1791C33.8598 18.2174 33.827 18.2503 33.7831 18.2777C33.7393 18.2996 33.6899 18.3216 33.6242 18.3325C33.5584 18.349 33.4762 18.3545 33.3885 18.3545C33.1967 18.3545 33.0323 18.3216 32.8843 18.2613L32.8569 18.2777Z" fill="black"/>
<path d="M34.5291 18.3435V16.6392H35.1483C35.3237 16.6392 35.4497 16.6775 35.5265 16.7488C35.6032 16.82 35.6416 16.9241 35.6416 17.0611V17.3132C35.6416 17.4502 35.6032 17.5544 35.5265 17.6311C35.4497 17.7078 35.3237 17.7407 35.1483 17.7407H34.7483V18.349H34.5291V18.3435ZM34.7483 17.5379H35.1374C35.2415 17.5379 35.3182 17.5215 35.3566 17.4886C35.4004 17.4557 35.4169 17.3954 35.4169 17.3132V17.0611C35.4169 16.9789 35.3949 16.9187 35.3566 16.8858C35.3182 16.8529 35.2415 16.8365 35.1374 16.8365H34.7483V17.5379Z" fill="black"/>
<path d="M35.9156 18.3435L36.4637 16.6392H36.787L37.3624 18.3435H37.1378L36.9953 17.9325H36.2719L36.1349 18.3435H35.9102H35.9156ZM36.3376 17.7407H36.9459L36.6281 16.8365L36.3376 17.7407Z" fill="black"/>
<path d="M37.8831 18.3431V16.6387H38.1845L38.9298 18.0965V16.6387H39.138V18.3431H38.8366L38.0913 16.8908V18.3431H37.8831ZM38.1626 16.3976C38.19 16.3537 38.2228 16.3154 38.2667 16.288C38.305 16.2606 38.3489 16.2441 38.3927 16.2441C38.4311 16.2441 38.4804 16.2606 38.5352 16.288C38.601 16.3209 38.6503 16.3373 38.6777 16.3373C38.7215 16.3373 38.7599 16.3099 38.7928 16.2606L38.8969 16.3318C38.8476 16.4414 38.7763 16.4908 38.6777 16.4908C38.6339 16.4908 38.5845 16.4743 38.5243 16.4469C38.4695 16.414 38.4201 16.3976 38.3872 16.3976C38.3598 16.3976 38.3379 16.4031 38.3215 16.4195C38.305 16.436 38.2776 16.4524 38.2557 16.4798L38.1626 16.3921V16.3976Z" fill="black"/>
<path d="M39.7571 17.8504V17.127C39.7571 17.0557 39.768 16.9845 39.79 16.9242C39.8119 16.8639 39.8502 16.8091 39.8996 16.7598C39.9489 16.7105 40.0147 16.6721 40.0914 16.6502C40.1681 16.6283 40.2667 16.6118 40.3709 16.6118C40.4586 16.6118 40.5353 16.6228 40.6011 16.6392C40.6723 16.6557 40.7271 16.6831 40.7764 16.7105C40.8257 16.7433 40.8641 16.7762 40.897 16.8201C40.9299 16.8639 40.9518 16.9132 40.9682 16.9626C40.9847 17.0119 40.9902 17.0667 40.9902 17.127V17.8504C40.9902 17.9107 40.9847 17.9655 40.9682 18.0148C40.9518 18.0641 40.9299 18.1134 40.897 18.1573C40.8641 18.2011 40.8257 18.2395 40.7764 18.2669C40.7271 18.2998 40.6723 18.3217 40.6011 18.3381C40.5298 18.3546 40.4531 18.3655 40.3709 18.3655C40.2667 18.3655 40.1681 18.3546 40.0914 18.3272C40.0092 18.2998 39.9434 18.2614 39.8996 18.2176C39.8502 18.1682 39.8174 18.1134 39.79 18.0531C39.768 17.9929 39.7571 17.9271 39.7571 17.8504ZM39.9763 17.8449C39.9763 17.949 40.0092 18.0312 40.0749 18.086C40.1407 18.1408 40.2393 18.1682 40.3709 18.1682C40.5024 18.1682 40.601 18.1408 40.6668 18.086C40.7326 18.0312 40.7655 17.949 40.7655 17.8449V17.1379C40.7655 17.0338 40.7326 16.9516 40.6668 16.8968C40.601 16.842 40.5024 16.8146 40.3709 16.8146C40.2393 16.8146 40.1407 16.842 40.0749 16.8968C40.0092 16.9516 39.9763 17.0338 39.9763 17.1379V17.8449Z" fill="black"/>
<path d="M41.6152 18.3435V16.6392H41.8344V18.1463H42.5743V18.3435H41.6152Z" fill="black"/>
<path d="M43.0289 18.3435L43.577 16.6392H43.9003L44.4757 18.3435H44.251L44.1085 17.9325H43.3851L43.2481 18.3435H43.0234H43.0289ZM43.4509 17.7407H44.0592L43.7414 16.8365L43.4509 17.7407Z" fill="black"/>
<path d="M44.9304 18.2777L44.9688 18.0969C45.1277 18.1462 45.2866 18.1736 45.4456 18.1736C45.5168 18.1736 45.5716 18.1736 45.6155 18.1626C45.6593 18.1517 45.6922 18.1407 45.7141 18.1133C45.736 18.0914 45.758 18.064 45.7634 18.0311C45.7744 17.9982 45.7744 17.9599 45.7744 17.9051V17.8448C45.7744 17.8448 45.7744 17.8119 45.7744 17.7955C45.7744 17.7735 45.7744 17.7626 45.7689 17.7516C45.7634 17.7407 45.7634 17.7297 45.7525 17.7187C45.747 17.7023 45.7415 17.6968 45.7306 17.6913C45.7251 17.6913 45.7141 17.6804 45.6977 17.6694C45.6812 17.6584 45.6703 17.653 45.6538 17.6475C45.6374 17.6475 45.6155 17.6365 45.5935 17.6256C45.5661 17.6146 45.5442 17.6091 45.5168 17.6036C45.4949 17.5982 45.462 17.5927 45.4237 17.5817C45.3524 17.5653 45.2921 17.5488 45.2483 17.5324C45.199 17.5214 45.1606 17.505 45.1222 17.4831C45.0839 17.4612 45.0565 17.4392 45.04 17.4173C45.0181 17.3954 45.0071 17.368 44.9907 17.3296C44.9797 17.2913 44.9688 17.2529 44.9688 17.2145C44.9688 17.1762 44.9688 17.1214 44.9688 17.0611C44.9688 16.957 44.9852 16.8748 45.0181 16.809C45.051 16.7487 45.1058 16.6994 45.188 16.6665C45.2702 16.6336 45.3798 16.6172 45.5168 16.6172C45.6812 16.6172 45.8347 16.6336 45.9772 16.672L45.9607 16.8583C45.8182 16.8254 45.6703 16.809 45.5223 16.809C45.4511 16.809 45.3963 16.809 45.3524 16.82C45.3086 16.8254 45.2757 16.8419 45.2538 16.8638C45.2318 16.8857 45.2154 16.9076 45.2044 16.9405C45.199 16.9734 45.1935 17.0118 45.1935 17.0666V17.1323C45.1935 17.1323 45.1935 17.1652 45.1935 17.1817C45.1935 17.1981 45.1935 17.22 45.199 17.2255C45.2044 17.231 45.2044 17.2474 45.2099 17.2584C45.2154 17.2748 45.2209 17.2803 45.2318 17.2858C45.2373 17.2858 45.2483 17.2967 45.2647 17.3077C45.2812 17.3187 45.2921 17.3242 45.3086 17.3296C45.325 17.3351 45.3414 17.3406 45.3688 17.3461C45.3962 17.3516 45.4182 17.3625 45.4401 17.368C45.462 17.3735 45.4949 17.379 45.5333 17.3899C45.5935 17.4064 45.6429 17.4228 45.6812 17.4338C45.7251 17.4447 45.7634 17.4612 45.7963 17.4721C45.8292 17.4886 45.8621 17.4995 45.884 17.5105C45.9059 17.5214 45.9224 17.5379 45.9443 17.5598C45.9662 17.5817 45.9717 17.5982 45.9826 17.6201C45.9936 17.642 45.9991 17.6639 46.0046 17.6913C46.01 17.7187 46.01 17.7516 46.0155 17.779C46.0155 17.8064 46.0155 17.8448 46.0155 17.8886C46.0155 17.9544 46.0155 18.0092 46.0046 18.053C45.9936 18.0969 45.9826 18.1407 45.9552 18.1791C45.9333 18.2174 45.9004 18.2503 45.8566 18.2777C45.8128 18.2996 45.7634 18.3216 45.6977 18.3325C45.6319 18.349 45.5497 18.3545 45.462 18.3545C45.2702 18.3545 45.1058 18.3216 44.9578 18.2613L44.9304 18.2777Z" fill="black"/>
<path d="M47.2274 18.3435L47.7754 16.6392H48.0988L48.6742 18.3435H48.4495L48.307 17.9325H47.5836L47.4466 18.3435H47.2219H47.2274ZM47.6494 17.7407H48.2577L47.9398 16.8365L47.6494 17.7407Z" fill="black"/>
<path d="M49.1279 18.2777L49.1663 18.0969C49.3252 18.1462 49.4842 18.1736 49.6431 18.1736C49.7143 18.1736 49.7691 18.1736 49.813 18.1626C49.8568 18.1517 49.8897 18.1407 49.9116 18.1133C49.9335 18.0914 49.9555 18.064 49.9609 18.0311C49.9719 17.9982 49.9719 17.9599 49.9719 17.9051V17.8448C49.9719 17.8448 49.9719 17.8119 49.9719 17.7955C49.9719 17.7735 49.9719 17.7626 49.9664 17.7516C49.9609 17.7407 49.9609 17.7297 49.95 17.7187C49.9445 17.7023 49.939 17.6968 49.9281 17.6913C49.9226 17.6913 49.9116 17.6804 49.8952 17.6694C49.8787 17.6584 49.8678 17.653 49.8513 17.6475C49.8349 17.6475 49.813 17.6365 49.791 17.6256C49.7636 17.6146 49.7417 17.6091 49.7143 17.6036C49.6924 17.5982 49.6595 17.5927 49.6212 17.5817C49.5499 17.5653 49.4896 17.5488 49.4458 17.5324C49.3965 17.5214 49.3581 17.505 49.3197 17.4831C49.2814 17.4612 49.254 17.4392 49.2375 17.4173C49.2156 17.3954 49.2047 17.368 49.1882 17.3296C49.1773 17.2913 49.1663 17.2529 49.1663 17.2145C49.1663 17.1762 49.1663 17.1214 49.1663 17.0611C49.1663 16.957 49.1827 16.8748 49.2156 16.809C49.2485 16.7487 49.3033 16.6994 49.3855 16.6665C49.4677 16.6336 49.5773 16.6172 49.7143 16.6172C49.8787 16.6172 50.0322 16.6336 50.1747 16.672L50.1582 16.8583C50.0157 16.8254 49.8678 16.809 49.7198 16.809C49.6486 16.809 49.5938 16.809 49.5499 16.82C49.5061 16.8254 49.4732 16.8419 49.4513 16.8638C49.4293 16.8857 49.4129 16.9076 49.4019 16.9405C49.3965 16.9734 49.391 17.0118 49.391 17.0666V17.1323C49.391 17.1323 49.391 17.1652 49.391 17.1817C49.391 17.1981 49.391 17.22 49.3965 17.2255C49.4019 17.231 49.4019 17.2474 49.4074 17.2584C49.4129 17.2748 49.4184 17.2803 49.4293 17.2858C49.4348 17.2858 49.4458 17.2967 49.4622 17.3077C49.4787 17.3187 49.4896 17.3242 49.5061 17.3296C49.5225 17.3351 49.539 17.3406 49.5664 17.3461C49.5938 17.3516 49.6157 17.3625 49.6376 17.368C49.6595 17.3735 49.6924 17.379 49.7308 17.3899C49.791 17.4064 49.8404 17.4228 49.8787 17.4338C49.9226 17.4447 49.9609 17.4612 49.9938 17.4721C50.0267 17.4886 50.0596 17.4995 50.0815 17.5105C50.1034 17.5214 50.1199 17.5379 50.1418 17.5598C50.1637 17.5817 50.1692 17.5982 50.1802 17.6201C50.1911 17.642 50.1966 17.6639 50.2021 17.6913C50.2076 17.7187 50.2076 17.7516 50.213 17.779C50.213 17.8064 50.213 17.8448 50.213 17.8886C50.213 17.9544 50.213 18.0092 50.2021 18.053C50.1911 18.0969 50.1802 18.1407 50.1528 18.1791C50.1308 18.2174 50.0979 18.2503 50.0541 18.2777C50.0103 18.2996 49.9609 18.3216 49.8952 18.3325C49.8294 18.349 49.7472 18.3545 49.6595 18.3545C49.4677 18.3545 49.3033 18.3216 49.1553 18.2613L49.1279 18.2777Z" fill="black"/>
<path d="M50.762 17.8504V17.127C50.762 17.0557 50.7729 16.9845 50.7948 16.9242C50.8168 16.8639 50.8551 16.8091 50.9044 16.7598C50.9538 16.7105 51.0195 16.6721 51.0963 16.6502C51.173 16.6283 51.2716 16.6118 51.3758 16.6118C51.4634 16.6118 51.5402 16.6228 51.6059 16.6392C51.6772 16.6557 51.732 16.6831 51.7813 16.7105C51.8306 16.7433 51.869 16.7762 51.9019 16.8201C51.9347 16.8639 51.9567 16.9132 51.9731 16.9626C51.9896 17.0119 51.995 17.0667 51.995 17.127V17.8504C51.995 17.9107 51.9896 17.9655 51.9731 18.0148C51.9567 18.0641 51.9347 18.1134 51.9019 18.1573C51.869 18.2011 51.8306 18.2395 51.7813 18.2669C51.732 18.2998 51.6772 18.3217 51.6059 18.3381C51.5347 18.3546 51.458 18.3655 51.3758 18.3655C51.2716 18.3655 51.173 18.3546 51.0963 18.3272C51.0141 18.2998 50.9483 18.2614 50.9044 18.2176C50.8551 18.1682 50.8222 18.1134 50.7948 18.0531C50.7729 17.9929 50.762 17.9271 50.762 17.8504ZM50.9812 17.8449C50.9812 17.949 51.0141 18.0312 51.0798 18.086C51.1456 18.1408 51.2442 18.1682 51.3758 18.1682C51.5073 18.1682 51.6059 18.1408 51.6717 18.086C51.7375 18.0312 51.7703 17.949 51.7703 17.8449V17.1379C51.7703 17.0338 51.7375 16.9516 51.6717 16.8968C51.6059 16.842 51.5073 16.8146 51.3758 16.8146C51.2442 16.8146 51.1456 16.842 51.0798 16.8968C51.0141 16.9516 50.9812 17.0338 50.9812 17.1379V17.8449Z" fill="black"/>
<path d="M52.5757 17.8667V17.1159C52.5757 16.9515 52.6195 16.8254 52.7127 16.7432C52.8059 16.661 52.9538 16.6172 53.1566 16.6172C53.3155 16.6172 53.458 16.6336 53.5841 16.661L53.5621 16.8528C53.4197 16.8309 53.2881 16.8145 53.1621 16.8145C53.0251 16.8145 52.9264 16.8364 52.8716 16.8857C52.8168 16.935 52.7894 17.0118 52.7894 17.1323V17.8612C52.7894 17.9818 52.8168 18.064 52.8716 18.1078C52.9264 18.1517 53.0251 18.1791 53.1621 18.1791C53.2881 18.1791 53.4197 18.1681 53.5621 18.1407L53.5841 18.3325C53.458 18.3599 53.3155 18.3764 53.1566 18.3764C52.9538 18.3764 52.8059 18.3325 52.7127 18.2503C52.6195 18.1681 52.5757 18.0421 52.5757 17.8777V17.8667Z" fill="black"/>
<path d="M54.1758 18.3435V16.6392H54.395V18.3435H54.1758Z" fill="black"/>
<path d="M54.9205 18.3435L55.4686 16.6392H55.7919L56.3673 18.3435H56.1426L56.0001 17.9325H55.2767L55.1397 18.3435H54.915H54.9205ZM55.3425 17.7407H55.9508L55.633 16.8365L55.3425 17.7407Z" fill="black"/>
<path d="M56.8831 18.3435V16.6392H57.4804C57.5626 16.6392 57.6339 16.6501 57.6996 16.6666C57.7654 16.683 57.8147 16.7049 57.8586 16.7378C57.9024 16.7652 57.9353 16.8036 57.9572 16.8419C57.9846 16.8858 58.001 16.9296 58.012 16.9735C58.023 17.0228 58.0284 17.0721 58.0284 17.1269V17.8558C58.0284 17.9106 58.023 17.9654 58.012 18.0092C58.001 18.0586 57.9846 18.1024 57.9572 18.1408C57.9298 18.1846 57.8969 18.2175 57.8586 18.2449C57.8147 18.2723 57.7654 18.2997 57.6996 18.3161C57.6339 18.3326 57.5626 18.3435 57.4804 18.3435H56.8831ZM57.1023 18.1463H57.4695C57.5955 18.1463 57.6832 18.1188 57.7325 18.0695C57.7818 18.0202 57.8092 17.9435 57.8092 17.8394V17.1434C57.8092 17.0392 57.7818 16.9625 57.7325 16.9132C57.6832 16.8639 57.5955 16.8365 57.4695 16.8365H57.1023V18.1463Z" fill="black"/>
<path d="M58.4557 18.3435L59.0037 16.6392H59.327L59.9025 18.3435H59.6778L59.5353 17.9325H58.8119L58.6749 18.3435H58.4502H58.4557ZM58.8777 17.7407H59.486L59.1681 16.8365L58.8777 17.7407Z" fill="black"/>
<path d="M60.3579 18.2777L60.3963 18.0969C60.5552 18.1462 60.7141 18.1736 60.8731 18.1736C60.9443 18.1736 60.9991 18.1736 61.043 18.1626C61.0868 18.1517 61.1197 18.1407 61.1416 18.1133C61.1635 18.0914 61.1854 18.064 61.1909 18.0311C61.2019 17.9982 61.2019 17.9599 61.2019 17.9051V17.8448C61.2019 17.8448 61.2019 17.8119 61.2019 17.7955C61.2019 17.7735 61.2019 17.7626 61.1964 17.7516C61.1909 17.7407 61.1909 17.7297 61.18 17.7187C61.1745 17.7023 61.169 17.6968 61.158 17.6913C61.1526 17.6913 61.1416 17.6804 61.1252 17.6694C61.1087 17.6584 61.0978 17.653 61.0813 17.6475C61.0649 17.6475 61.043 17.6365 61.021 17.6256C60.9936 17.6146 60.9717 17.6091 60.9443 17.6036C60.9224 17.5982 60.8895 17.5927 60.8511 17.5817C60.7799 17.5653 60.7196 17.5488 60.6758 17.5324C60.6264 17.5214 60.5881 17.505 60.5497 17.4831C60.5114 17.4612 60.484 17.4392 60.4675 17.4173C60.4456 17.3954 60.4346 17.368 60.4182 17.3296C60.4072 17.2913 60.3963 17.2529 60.3963 17.2145C60.3963 17.1762 60.3963 17.1214 60.3963 17.0611C60.3963 16.957 60.4127 16.8748 60.4456 16.809C60.4785 16.7487 60.5333 16.6994 60.6155 16.6665C60.6977 16.6336 60.8073 16.6172 60.9443 16.6172C61.1087 16.6172 61.2622 16.6336 61.4047 16.672L61.3882 16.8583C61.2457 16.8254 61.0978 16.809 60.9498 16.809C60.8785 16.809 60.8237 16.809 60.7799 16.82C60.7361 16.8254 60.7032 16.8419 60.6813 16.8638C60.6593 16.8857 60.6429 16.9076 60.6319 16.9405C60.6264 16.9734 60.621 17.0118 60.621 17.0666V17.1323C60.621 17.1323 60.621 17.1652 60.621 17.1817C60.621 17.1981 60.621 17.22 60.6264 17.2255C60.6319 17.231 60.6319 17.2474 60.6374 17.2584C60.6429 17.2748 60.6484 17.2803 60.6593 17.2858C60.6648 17.2858 60.6758 17.2967 60.6922 17.3077C60.7087 17.3187 60.7196 17.3242 60.7361 17.3296C60.7525 17.3351 60.7689 17.3406 60.7963 17.3461C60.8237 17.3516 60.8457 17.3625 60.8676 17.368C60.8895 17.3735 60.9224 17.379 60.9607 17.3899C61.021 17.4064 61.0704 17.4228 61.1087 17.4338C61.1526 17.4447 61.1909 17.4612 61.2238 17.4721C61.2567 17.4886 61.2896 17.4995 61.3115 17.5105C61.3334 17.5214 61.3498 17.5379 61.3718 17.5598C61.3937 17.5817 61.3992 17.5982 61.4101 17.6201C61.4211 17.642 61.4266 17.6639 61.4321 17.6913C61.4375 17.7187 61.4375 17.7516 61.443 17.779C61.443 17.8064 61.443 17.8448 61.443 17.8886C61.443 17.9544 61.443 18.0092 61.4321 18.053C61.4211 18.0969 61.4101 18.1407 61.3827 18.1791C61.3608 18.2174 61.3279 18.2503 61.2841 18.2777C61.2402 18.2996 61.1909 18.3216 61.1252 18.3325C61.0594 18.349 60.9772 18.3545 60.8895 18.3545C60.6977 18.3545 60.5333 18.3216 60.3853 18.2613L60.3579 18.2777Z" fill="black"/>
</g>
<defs>
<clipPath id="clip0_2521_276">
<rect width="60.6563" height="17.7289" fill="black" transform="translate(0.768311 0.642578)"/>
</clipPath>
</defs>
</svg>
