<svg width="30" height="19" viewBox="0 0 30 19" fill="none" xmlns="http://www.w3.org/2000/svg">
<g clip-path="url(#clip0_2521_352)">
<path d="M13.9457 5.35894V6.43823H18.5219V8.84586H13.9457V14.674H10.8307C10.8307 14.5578 10.8274 14.1892 10.8274 14.0729V5.85043C10.8274 4.59846 10.9802 3.49593 11.4085 2.70224C12.1425 1.35396 13.5804 0.467285 15.4733 0.467285C18.3492 0.467285 20.1225 2.57604 20.1225 5.29917V5.49842H17.0042V5.35894C17.0042 4.19663 16.4231 3.58559 15.4766 3.58559C14.5302 3.58559 13.949 4.19663 13.949 5.35894" fill="black"/>
<path d="M1.65591 16.982V16.2049C1.65591 15.9692 1.51644 15.833 1.21756 15.833C1.03491 15.833 0.915356 15.8729 0.81905 16.0057L0.905393 16.0821C0.975132 15.9791 1.05815 15.9393 1.21756 15.9393C1.4467 15.9393 1.53636 16.0356 1.53636 16.2149V16.3411H1.17106C0.925318 16.3411 0.775879 16.4607 0.775879 16.6665C0.775879 16.7529 0.805767 16.8326 0.858901 16.8857C0.93196 16.9621 1.02494 16.9887 1.19099 16.9887C1.35703 16.9887 1.44005 16.9588 1.53636 16.8625V16.9754H1.65591V16.982ZM1.53636 16.5868C1.53636 16.6931 1.51644 16.7629 1.47326 16.8027C1.39356 16.8791 1.29394 16.889 1.19099 16.889C0.985094 16.889 0.895431 16.8193 0.895431 16.6699C0.895431 16.5204 0.988415 16.4407 1.18435 16.4407H1.53636V16.5868Z" fill="black"/>
<path d="M2.8235 16.6605C2.8235 16.4413 2.6807 16.3815 2.49141 16.3649L2.30876 16.3483C2.14936 16.335 2.07962 16.2753 2.07962 16.159C2.07962 16.0196 2.18257 15.9399 2.36853 15.9399C2.49473 15.9399 2.59768 15.9731 2.68734 16.0362L2.76704 15.9565C2.66741 15.8801 2.52462 15.8369 2.36853 15.8369C2.12279 15.8369 1.96339 15.9631 1.96339 16.159C1.96339 16.335 2.0763 16.438 2.30544 16.4546L2.49473 16.4712C2.64085 16.4845 2.71059 16.5443 2.71059 16.6605C2.71059 16.8133 2.59103 16.8896 2.36853 16.8896C2.20581 16.8896 2.08626 16.8465 1.9966 16.7502L1.91357 16.8332C2.02981 16.9428 2.1726 16.9959 2.37186 16.9959C2.64749 16.9959 2.82682 16.8664 2.82682 16.6605" fill="black"/>
<path d="M3.94996 16.4142C3.94996 16.2514 3.93003 16.0788 3.81048 15.9592C3.73078 15.8795 3.62119 15.833 3.495 15.833C3.36881 15.833 3.25922 15.8795 3.17952 15.9592C3.05996 16.0788 3.04004 16.2514 3.04004 16.4142C3.04004 16.5769 3.05996 16.7496 3.17952 16.8691C3.25922 16.9488 3.36881 16.992 3.495 16.992C3.62119 16.992 3.73078 16.9455 3.81048 16.8691C3.93003 16.7496 3.94996 16.5769 3.94996 16.4142ZM3.83041 16.4142C3.83041 16.547 3.82377 16.6998 3.73078 16.7927C3.66769 16.8525 3.58798 16.889 3.495 16.889C3.40202 16.889 3.32231 16.8525 3.25922 16.7927C3.16623 16.6998 3.15959 16.547 3.15959 16.4142C3.15959 16.2813 3.16623 16.1286 3.25922 16.0356C3.31899 15.9758 3.40202 15.9393 3.495 15.9393C3.58798 15.9393 3.66769 15.9758 3.73078 16.0356C3.82377 16.1286 3.83041 16.2813 3.83041 16.4142Z" fill="black"/>
<path d="M5.06529 16.8226L4.98226 16.7462C4.88596 16.8525 4.80958 16.889 4.69003 16.889C4.56383 16.889 4.45756 16.8359 4.38783 16.7396C4.33137 16.6566 4.31145 16.5669 4.31145 16.4142C4.31145 16.2614 4.33137 16.1717 4.38783 16.0887C4.45424 15.9891 4.56051 15.9393 4.69003 15.9393C4.80958 15.9393 4.88596 15.9758 4.98226 16.0821L5.06529 16.0057C4.94241 15.8729 4.84611 15.833 4.69003 15.833C4.38118 15.833 4.19189 16.0522 4.19189 16.4142C4.19189 16.7761 4.38118 16.9953 4.69003 16.9953C4.84611 16.9953 4.94241 16.9555 5.06529 16.8226Z" fill="black"/>
<path d="M5.47439 15.3081H5.32495V15.4575H5.47439V15.3081ZM5.46111 15.8494H5.34156V16.9818H5.46111V15.8494Z" fill="black"/>
<path d="M6.62344 16.982V16.2049C6.62344 15.9692 6.48396 15.833 6.18509 15.833C6.00244 15.833 5.88289 15.8729 5.78658 16.0057L5.87292 16.0821C5.94266 15.9791 6.02568 15.9393 6.18509 15.9393C6.41423 15.9393 6.50389 16.0356 6.50389 16.2149V16.3411H6.13859C5.89285 16.3411 5.74341 16.4607 5.74341 16.6665C5.74341 16.7529 5.7733 16.8326 5.82643 16.8857C5.89949 16.9621 5.99247 16.9887 6.15852 16.9887C6.32456 16.9887 6.40758 16.9588 6.50389 16.8625V16.9754H6.62344V16.982ZM6.50057 16.5868C6.50057 16.6931 6.48064 16.7629 6.43747 16.8027C6.35777 16.8791 6.25814 16.889 6.1552 16.889C5.9493 16.889 5.85964 16.8193 5.85964 16.6699C5.85964 16.5204 5.95262 16.4407 6.14856 16.4407H6.50057V16.5868Z" fill="black"/>
<path d="M7.79502 16.8226L7.712 16.7462C7.61569 16.8525 7.53931 16.889 7.41976 16.889C7.29357 16.889 7.1873 16.8359 7.11756 16.7396C7.06111 16.6566 7.04118 16.5669 7.04118 16.4142C7.04118 16.2614 7.06111 16.1717 7.11756 16.0887C7.18398 15.9891 7.29025 15.9393 7.41976 15.9393C7.53931 15.9393 7.61569 15.9758 7.712 16.0821L7.79502 16.0057C7.67215 15.8729 7.57584 15.833 7.41976 15.833C7.11092 15.833 6.92163 16.0522 6.92163 16.4142C6.92163 16.7761 7.11092 16.9953 7.41976 16.9953C7.57584 16.9953 7.67215 16.9555 7.79502 16.8226Z" fill="black"/>
<path d="M8.20413 15.3081H8.05469V15.4575H8.20413V15.3081ZM8.18752 15.8494H8.06797V16.9818H8.18752V15.8494Z" fill="black"/>
<path d="M9.23011 15.2485H9.07402L8.84488 15.5939H8.98104L9.23011 15.2485ZM9.40943 16.4142C9.40943 16.2514 9.38951 16.0788 9.26996 15.9592C9.19025 15.8795 9.08067 15.833 8.95447 15.833C8.82828 15.833 8.71869 15.8795 8.63899 15.9592C8.51944 16.0788 8.49951 16.2514 8.49951 16.4142C8.49951 16.5769 8.51944 16.7496 8.63899 16.8691C8.71869 16.9488 8.82828 16.992 8.95447 16.992C9.08067 16.992 9.19025 16.9455 9.26996 16.8691C9.38951 16.7496 9.40943 16.5769 9.40943 16.4142ZM9.28988 16.4142C9.28988 16.547 9.28324 16.6998 9.19025 16.7927C9.13048 16.8525 9.04746 16.8891 8.95447 16.8891C8.86149 16.8891 8.78179 16.8525 8.71869 16.7927C8.62571 16.6998 8.61906 16.547 8.61906 16.4142C8.61906 16.2813 8.62571 16.1286 8.71869 16.0356C8.77847 15.9758 8.86149 15.9393 8.95447 15.9393C9.04746 15.9393 9.12716 15.9758 9.19025 16.0356C9.28324 16.1286 9.28988 16.2813 9.28988 16.4142Z" fill="black"/>
<path d="M10.5942 16.9826V16.2587C10.5942 16.1225 10.551 16.0162 10.478 15.9432C10.4049 15.8734 10.3053 15.8369 10.1758 15.8369C10.0396 15.8369 9.92669 15.8867 9.84367 15.983V15.8502H9.72412V16.9826H9.84367V16.2786C9.84367 16.0661 9.9599 15.9399 10.1625 15.9399C10.3651 15.9399 10.4746 16.0594 10.4746 16.2786V16.9826H10.5942Z" fill="black"/>
<path d="M12.2887 16.9818V15.3081H12.1692V15.9955C12.0695 15.8627 11.96 15.8361 11.8338 15.8361C11.7175 15.8361 11.6146 15.876 11.5548 15.9358C11.4386 16.052 11.4087 16.238 11.4087 16.4173C11.4087 16.5966 11.4386 16.7826 11.5548 16.8988C11.6146 16.9586 11.7142 16.9984 11.8338 16.9984C11.96 16.9984 12.0695 16.9685 12.1692 16.839V16.9852H12.2887V16.9818ZM12.1692 16.414C12.1692 16.6497 12.126 16.8888 11.8504 16.8888C11.5747 16.8888 11.5316 16.6497 11.5316 16.414C11.5316 16.1782 11.5747 15.9391 11.8504 15.9391C12.126 15.9391 12.1692 16.1782 12.1692 16.414Z" fill="black"/>
<path d="M13.5069 16.4413V16.3882C13.5069 16.0428 13.3343 15.8369 13.0553 15.8369C12.7763 15.8369 12.6003 16.0528 12.6003 16.4181C12.6003 16.7834 12.7697 16.9992 13.0819 16.9992C13.2712 16.9992 13.3741 16.9394 13.4903 16.8265L13.4007 16.7568C13.3044 16.8531 13.2213 16.893 13.0885 16.893C12.8494 16.893 12.7199 16.7336 12.7199 16.448H13.5069V16.4413ZM13.3874 16.345H12.7199C12.7232 16.2354 12.7299 16.2022 12.7597 16.1325C12.8096 16.0162 12.9225 15.9432 13.052 15.9432C13.1815 15.9432 13.2977 16.0162 13.3442 16.1325C13.3708 16.2022 13.3807 16.2387 13.3841 16.345" fill="black"/>
<path d="M14.7467 15.9361V15.8465H14.491V15.6007C14.491 15.4845 14.5441 15.4114 14.6637 15.4114H14.7467V15.3052H14.6437C14.4644 15.3052 14.3714 15.4314 14.3714 15.6007V15.8465H14.2153V15.9361H14.3714V16.9789H14.491V15.9361H14.7467Z" fill="black"/>
<path d="M15.7655 16.4413V16.3882C15.7655 16.0428 15.5928 15.8369 15.3138 15.8369C15.0349 15.8369 14.8589 16.0528 14.8589 16.4181C14.8589 16.7834 15.0283 16.9992 15.3404 16.9992C15.5297 16.9992 15.6327 16.9394 15.7489 16.8265L15.6592 16.7568C15.5629 16.8531 15.4799 16.893 15.3471 16.893C15.108 16.893 14.9784 16.7336 14.9784 16.448H15.7655V16.4413ZM15.6459 16.345H14.9784C14.9818 16.2354 14.9917 16.2022 15.0183 16.1325C15.0681 16.0162 15.181 15.9432 15.3105 15.9432C15.44 15.9432 15.5563 16.0162 15.6028 16.1325C15.6327 16.2022 15.6393 16.2387 15.6426 16.345" fill="black"/>
<path d="M16.7991 15.9426C16.7194 15.8629 16.6331 15.833 16.5268 15.833C16.394 15.833 16.2612 15.8928 16.1947 15.9991V15.8496H16.0752V16.982H16.1947V16.2846C16.1947 16.102 16.3043 15.9426 16.4969 15.9426C16.5899 15.9426 16.6431 15.9625 16.7095 16.0323L16.7958 15.9459L16.7991 15.9426Z" fill="black"/>
<path d="M17.0904 15.3081H16.9409V15.4575H17.0904V15.3081ZM17.0771 15.8494H16.9575V16.9818H17.0771V15.8494Z" fill="black"/>
<path d="M18.2362 16.982V16.2049C18.2362 15.9692 18.0934 15.833 17.7979 15.833C17.6152 15.833 17.4957 15.8729 17.3994 16.0057L17.4857 16.0821C17.5555 15.9791 17.6385 15.9393 17.7979 15.9393C18.027 15.9393 18.1167 16.0356 18.1167 16.2149V16.3411H17.7514C17.5056 16.3411 17.3562 16.4607 17.3562 16.6665C17.3562 16.7529 17.3861 16.8326 17.4392 16.8857C17.5123 16.9621 17.6053 16.9887 17.7713 16.9887C17.9374 16.9887 18.0204 16.9588 18.1167 16.8625V16.9754H18.2362V16.982ZM18.1167 16.5868C18.1167 16.6931 18.0968 16.7629 18.0536 16.8027C17.9739 16.8791 17.8743 16.889 17.7713 16.889C17.5687 16.889 17.4758 16.8193 17.4758 16.6699C17.4758 16.5204 17.5687 16.4407 17.7647 16.4407H18.1167V16.5868Z" fill="black"/>
<path d="M19.4047 16.6605C19.4047 16.4413 19.2619 16.3815 19.0726 16.3649L18.89 16.3483C18.7306 16.335 18.6608 16.2753 18.6608 16.159C18.6608 16.0196 18.7638 15.9399 18.9497 15.9399C19.0726 15.9399 19.1789 15.9731 19.2652 16.0362L19.3449 15.9565C19.2453 15.8801 19.1025 15.8369 18.9464 15.8369C18.7007 15.8369 18.5413 15.9631 18.5413 16.159C18.5413 16.335 18.6542 16.438 18.8833 16.4546L19.0726 16.4712C19.222 16.4845 19.2885 16.5443 19.2885 16.6605C19.2885 16.8133 19.1689 16.8896 18.9464 16.8896C18.7837 16.8896 18.6641 16.8465 18.5745 16.7502L18.4915 16.8332C18.6077 16.9428 18.7538 16.9959 18.9497 16.9959C19.2287 16.9959 19.4047 16.8664 19.4047 16.6605Z" fill="black"/>
<path d="M21.0487 16.4413V16.3882C21.0487 16.0428 20.876 15.8369 20.5971 15.8369C20.3181 15.8369 20.1421 16.0528 20.1421 16.4181C20.1421 16.7834 20.3115 16.9992 20.6236 16.9992C20.8129 16.9992 20.9159 16.9394 21.0321 16.8265L20.9424 16.7568C20.8461 16.8531 20.7631 16.893 20.6303 16.893C20.3912 16.893 20.2616 16.7336 20.2616 16.448H21.0487V16.4413ZM20.9291 16.345H20.2616C20.265 16.2354 20.2749 16.2022 20.3015 16.1325C20.3513 16.0162 20.4642 15.9432 20.5937 15.9432C20.7232 15.9432 20.8395 16.0162 20.886 16.1325C20.9159 16.2022 20.9225 16.2387 20.9258 16.345" fill="black"/>
<path d="M22.1585 16.6605C22.1585 16.4413 22.0157 16.3815 21.8264 16.3649L21.6437 16.3483C21.4843 16.335 21.4146 16.2753 21.4146 16.159C21.4146 16.0196 21.5175 15.9399 21.7035 15.9399C21.8264 15.9399 21.9326 15.9731 22.0223 16.0362L22.102 15.9565C22.0024 15.8801 21.8596 15.8369 21.7035 15.8369C21.4578 15.8369 21.2983 15.9631 21.2983 16.159C21.2983 16.335 21.4113 16.438 21.6404 16.4546L21.8297 16.4712C21.9791 16.4845 22.0455 16.5443 22.0455 16.6605C22.0455 16.8133 21.926 16.8896 21.7035 16.8896C21.5408 16.8896 21.4212 16.8465 21.3316 16.7502L21.2485 16.8332C21.3648 16.9428 21.5109 16.9959 21.7068 16.9959C21.9858 16.9959 22.1618 16.8664 22.1618 16.6605" fill="black"/>
<path d="M23.317 16.4142C23.317 16.2348 23.2872 16.0489 23.1709 15.9326C23.1111 15.8729 23.0115 15.833 22.892 15.833C22.7658 15.833 22.6562 15.8629 22.5566 15.9924V15.8463H22.437V17.52H22.5566V16.8326C22.6562 16.9654 22.7658 16.992 22.892 16.992C23.0082 16.992 23.1111 16.9521 23.1709 16.8924C23.2872 16.7761 23.317 16.5902 23.317 16.4108M23.1975 16.4142C23.1975 16.6499 23.1543 16.889 22.8787 16.889C22.6031 16.889 22.5599 16.6499 22.5599 16.4142C22.5599 16.1784 22.6031 15.9393 22.8787 15.9393C23.1543 15.9393 23.1975 16.1784 23.1975 16.4142Z" fill="black"/>
<path d="M24.4135 16.982V16.2049C24.4135 15.9692 24.2707 15.833 23.9751 15.833C23.7925 15.833 23.6729 15.8729 23.5766 16.0057L23.663 16.0821C23.7327 15.9791 23.8157 15.9393 23.9751 15.9393C24.2043 15.9393 24.2939 16.0356 24.2939 16.2149V16.3411H23.9286C23.6829 16.3411 23.5334 16.4607 23.5334 16.6665C23.5334 16.7529 23.5633 16.8326 23.6165 16.8857C23.6895 16.9621 23.7825 16.9887 23.9486 16.9887C24.1146 16.9887 24.1976 16.9588 24.2939 16.8625V16.9754H24.4135V16.982ZM24.2939 16.5868C24.2939 16.6931 24.274 16.7629 24.2308 16.8027C24.1511 16.8791 24.0515 16.889 23.9486 16.889C23.746 16.889 23.653 16.8193 23.653 16.6699C23.653 16.5204 23.746 16.4407 23.9419 16.4407H24.2939V16.5868Z" fill="black"/>
<path d="M25.5683 15.4478L25.4986 15.378C25.4288 15.4478 25.3923 15.4544 25.3591 15.4544C25.3126 15.4544 25.2761 15.4345 25.2262 15.4046C25.1698 15.3681 25.1333 15.3481 25.0635 15.3481C25.017 15.3481 24.9639 15.3515 24.8543 15.4611L24.924 15.5308C24.9971 15.4577 25.0237 15.4544 25.0635 15.4544C25.11 15.4544 25.1499 15.4777 25.1964 15.5042C25.2495 15.5341 25.2927 15.5607 25.3591 15.5607C25.4023 15.5607 25.4587 15.5574 25.5683 15.4478ZM25.6513 16.982V16.2581C25.6513 16.1219 25.6081 16.0156 25.5351 15.9426C25.462 15.8728 25.3624 15.833 25.2329 15.833C25.0967 15.833 24.9838 15.8828 24.9008 15.9824V15.8496H24.7812V16.982H24.9008V16.278C24.9008 16.0655 25.017 15.9393 25.2196 15.9393C25.4222 15.9393 25.5318 16.0588 25.5318 16.278V16.982H25.6513Z" fill="black"/>
<path d="M26.8606 16.4142C26.8606 16.2514 26.8407 16.0788 26.7211 15.9592C26.6414 15.8795 26.5318 15.833 26.4056 15.833C26.2795 15.833 26.1699 15.8795 26.0902 15.9592C25.9706 16.0788 25.9507 16.2514 25.9507 16.4142C25.9507 16.5769 25.9706 16.7496 26.0902 16.8691C26.1699 16.9488 26.2795 16.992 26.4056 16.992C26.5318 16.992 26.6414 16.9455 26.7211 16.8691C26.8407 16.7496 26.8606 16.5769 26.8606 16.4142ZM26.7411 16.4142C26.7411 16.547 26.7344 16.6998 26.6414 16.7927C26.5783 16.8525 26.4986 16.889 26.4056 16.889C26.3127 16.889 26.233 16.8525 26.1699 16.7927C26.0769 16.6998 26.0702 16.547 26.0702 16.4142C26.0702 16.2813 26.0769 16.1286 26.1699 16.0356C26.2296 15.9758 26.3127 15.9393 26.4056 15.9393C26.4986 15.9393 26.5783 15.9758 26.6414 16.0356C26.7344 16.1286 26.7411 16.2813 26.7411 16.4142Z" fill="black"/>
<path d="M27.5415 16.9818V16.8756H27.4585C27.3257 16.8756 27.2858 16.8125 27.2858 16.6863V15.3081H27.1663V16.6863C27.1663 16.8623 27.2559 16.9785 27.4386 16.9785H27.5415V16.9818Z" fill="black"/>
<path d="M28.5517 16.982V16.2049C28.5517 15.9692 28.4089 15.833 28.1133 15.833C27.9307 15.833 27.8111 15.8729 27.7148 16.0057L27.8011 16.0821C27.8709 15.9791 27.9539 15.9393 28.1133 15.9393C28.3424 15.9393 28.4321 16.0356 28.4321 16.2149V16.3411H28.0668C27.8211 16.3411 27.6716 16.4607 27.6716 16.6665C27.6716 16.7529 27.7015 16.8326 27.7547 16.8857C27.8277 16.9621 27.9207 16.9887 28.0867 16.9887C28.2528 16.9887 28.3358 16.9588 28.4321 16.8625V16.9754H28.5517V16.982ZM28.4321 16.5868C28.4321 16.6931 28.4122 16.7629 28.369 16.8027C28.2893 16.8791 28.1897 16.889 28.0867 16.889C27.8842 16.889 27.7912 16.8193 27.7912 16.6699C27.7912 16.5204 27.8842 16.4407 28.0801 16.4407H28.4321V16.5868Z" fill="black"/>
<path d="M29.7201 16.6605C29.7201 16.4413 29.5773 16.3815 29.388 16.3649L29.2054 16.3483C29.046 16.335 28.9763 16.2753 28.9763 16.159C28.9763 16.0196 29.0792 15.9399 29.2652 15.9399C29.388 15.9399 29.4943 15.9731 29.5807 16.0362L29.6604 15.9565C29.5607 15.8801 29.4179 15.8369 29.2618 15.8369C29.0161 15.8369 28.8567 15.9631 28.8567 16.159C28.8567 16.335 28.9696 16.438 29.1987 16.4546L29.388 16.4712C29.5375 16.4845 29.6039 16.5443 29.6039 16.6605C29.6039 16.8133 29.4843 16.8896 29.2618 16.8896C29.0991 16.8896 28.9796 16.8465 28.8899 16.7502L28.8069 16.8332C28.9231 16.9428 29.0692 16.9959 29.2652 16.9959C29.5441 16.9959 29.7201 16.8664 29.7201 16.6605Z" fill="black"/>
<path d="M0.980957 6.41839V9.8555C0.980957 12.5753 2.75431 14.6874 5.62687 14.6874C7.52309 14.6874 8.95771 13.8007 9.69162 12.4558C10.12 11.6621 10.2728 10.5595 10.2728 9.30756V5.88373C10.2728 4.63176 10.12 3.52923 9.69162 2.73554C8.95771 1.39058 7.52309 0.503906 5.62687 0.503906C4.18893 0.503906 3.05983 1.02196 2.23293 1.87875C1.43924 2.70233 0.980957 3.89785 0.980957 5.1797H4.09926C4.15904 4.50557 4.43467 3.61889 5.62687 3.61889C6.57332 3.61889 7.15447 4.17016 7.15447 5.1465V6.41507H0.980957V6.41839ZM7.15447 9.79573C7.15447 10.958 6.57332 11.5691 5.62687 11.5691C4.68042 11.5691 4.09926 10.958 4.09926 9.79573V8.86588H7.15779V9.79573H7.15447Z" fill="black"/>
<path d="M29.8452 8.88572V5.31909C29.8452 2.58601 28.0652 0.467285 25.176 0.467285C23.2731 0.467285 21.8285 1.35728 21.0913 2.70888C20.6596 3.50589 20.5068 4.61174 20.5068 5.87036V9.30747C20.5068 10.5661 20.6596 11.6719 21.0913 12.4723C21.8285 13.8239 23.2731 14.7139 25.176 14.7139C26.6206 14.7139 27.7563 14.1925 28.5865 13.3324C29.3835 12.5022 29.8452 11.3066 29.8452 10.0148H26.7136C26.6538 10.6923 26.3748 11.5823 25.1793 11.5823C24.2262 11.5823 23.6451 11.031 23.6451 10.048V8.88904H29.8485L29.8452 8.88572ZM23.6417 5.38219C23.6417 4.21656 24.2262 3.6022 25.176 3.6022C26.1258 3.6022 26.7102 4.21656 26.7102 5.38219V6.43159H23.6384V5.38219H23.6417Z" fill="black"/>
<path d="M1.2559 18.3342C1.2559 18.2744 1.23265 18.2213 1.18948 18.1881C1.15627 18.1615 1.12638 18.1482 1.05332 18.1382L0.970302 18.125C0.92713 18.1183 0.883959 18.0984 0.857392 18.0785C0.830825 18.0552 0.817541 18.022 0.817541 17.9788C0.817541 17.8825 0.883959 17.8228 0.993548 17.8228C1.08321 17.8228 1.1297 17.8527 1.1762 17.8925L1.21273 17.856C1.14963 17.7995 1.08985 17.7729 0.996869 17.7729C0.85075 17.7729 0.761086 17.8526 0.761086 17.9788C0.761086 18.0386 0.781012 18.0851 0.820862 18.1183C0.854071 18.1449 0.897242 18.1648 0.957018 18.1748L1.04668 18.1881C1.10978 18.198 1.1297 18.2047 1.15627 18.2279C1.18284 18.2512 1.19944 18.2877 1.19944 18.3342C1.19944 18.4338 1.12306 18.4903 1.00351 18.4903C0.910526 18.4903 0.857392 18.4703 0.787653 18.4006L0.747803 18.4404C0.817541 18.5102 0.88728 18.5401 1.00019 18.5401C1.15627 18.5401 1.2559 18.4571 1.2559 18.3309" fill="black"/>
<path d="M2.31596 17.9985C2.31596 17.859 2.21965 17.7793 2.08682 17.7793H1.80786V18.5365H1.86432V18.2143H2.08349C2.21301 18.2143 2.31264 18.1346 2.31264 17.9952M2.25618 17.9985C2.25618 18.1114 2.18312 18.1645 2.07685 18.1645H1.86432V17.8291H2.07685C2.1798 17.8291 2.25618 17.8822 2.25618 17.9952" fill="black"/>
<path d="M3.30523 18.5399L3.02628 17.7827H2.97646L2.69751 18.5399H2.76061L2.82702 18.3572H3.17904L3.24545 18.5399H3.30855H3.30523ZM3.15911 18.3041H2.84363L3.00303 17.8591L3.16243 18.3041H3.15911Z" fill="black"/>
<path d="M4.36523 18.5399V17.7827H4.30878V18.4369L3.87042 17.7827H3.81396V18.5399H3.87042V17.879L4.30878 18.5399H4.36523Z" fill="black"/>
<path d="M5.02813 17.7827H4.97168V18.5399H5.02813V17.7827Z" fill="black"/>
<path d="M6.07865 18.3342C6.07865 18.2744 6.05541 18.2213 6.01223 18.1881C5.97902 18.1615 5.94914 18.1482 5.87608 18.1382L5.79306 18.125C5.74988 18.1183 5.70671 18.0984 5.68015 18.0785C5.65358 18.0552 5.64029 18.022 5.64029 17.9788C5.64029 17.8825 5.70671 17.8228 5.8163 17.8228C5.90597 17.8228 5.95246 17.8527 5.99895 17.8925L6.03548 17.856C5.97238 17.7995 5.91261 17.7729 5.81962 17.7729C5.6735 17.7729 5.58384 17.8526 5.58384 17.9788C5.58384 18.0386 5.60377 18.0851 5.64362 18.1183C5.67682 18.1449 5.72 18.1648 5.77977 18.1748L5.86944 18.1881C5.92921 18.198 5.95246 18.2047 5.97902 18.2279C6.00559 18.2512 6.0222 18.2877 6.0222 18.3342C6.0222 18.4338 5.94582 18.4903 5.82626 18.4903C5.73328 18.4903 5.68015 18.4703 5.61041 18.4006L5.57056 18.4404C5.6403 18.5102 5.71003 18.5401 5.82294 18.5401C5.97902 18.5401 6.07865 18.4571 6.07865 18.3309" fill="black"/>
<path d="M7.14115 18.5399V17.7827H7.0847V18.1314H6.68951V17.7827H6.63306V18.5399H6.68951V18.1812H7.0847V18.5399H7.14115Z" fill="black"/>
<path d="M8.81815 17.8325V17.7827H8.31006V17.8325H8.53256V18.5399H8.59233V17.8325H8.81815Z" fill="black"/>
<path d="M9.85434 18.5395L9.67169 18.1908C9.77796 18.1742 9.84437 18.1011 9.84437 17.9882C9.84437 17.8554 9.75139 17.7856 9.62852 17.7856H9.3396V18.5428H9.39605V18.1941H9.60527L9.7846 18.5428H9.85101L9.85434 18.5395ZM9.78792 17.9849C9.78792 18.0878 9.71818 18.1377 9.62187 18.1377H9.39937V17.8321H9.62187C9.71818 17.8321 9.78792 17.8819 9.78792 17.9849Z" fill="black"/>
<path d="M10.9175 18.5399L10.6386 17.7827H10.5888L10.3098 18.5399H10.3729L10.4393 18.3572H10.7913L10.8578 18.5399H10.9209H10.9175ZM10.7747 18.3041H10.4593L10.6187 17.8591L10.7781 18.3041H10.7747Z" fill="black"/>
<path d="M11.94 18.1479C11.94 18.045 11.9433 17.9254 11.867 17.849C11.8238 17.8059 11.7574 17.7793 11.6777 17.7793H11.4253V18.5365H11.6777C11.7574 18.5365 11.8238 18.5132 11.867 18.4667C11.9433 18.3903 11.94 18.2475 11.94 18.1479ZM11.8836 18.1479C11.8836 18.2309 11.8869 18.3671 11.8271 18.4269C11.7839 18.47 11.7242 18.4866 11.6644 18.4866H11.4817V17.8324H11.6644C11.7242 17.8324 11.7839 17.8457 11.8271 17.8922C11.8869 17.9553 11.8836 18.0682 11.8836 18.1512" fill="black"/>
<path d="M12.9768 18.5399V18.4867H12.575V18.1812H12.9204V18.1314H12.575V17.8325H12.9768V17.7827H12.5186V18.5399H12.9768Z" fill="black"/>
<path d="M14.6299 17.8325V17.7827H14.1716V18.5399H14.2281V18.1945H14.5701V18.1447H14.2281V17.8325H14.6299Z" fill="black"/>
<path d="M15.5997 18.5399L15.3207 17.7827H15.2709L14.9919 18.5399H15.055L15.1215 18.3572H15.4735L15.5399 18.5399H15.603H15.5997ZM15.4535 18.3041H15.1381L15.2975 17.8591L15.4569 18.3041H15.4535Z" fill="black"/>
<path d="M16.1639 17.7827H16.1074V18.5399H16.1639V17.7827Z" fill="black"/>
<path d="M17.2838 18.5395L17.1011 18.1908C17.2074 18.1742 17.2738 18.1011 17.2738 17.9882C17.2738 17.8554 17.1808 17.7856 17.058 17.7856H16.769V18.5428H16.8255V18.1941H17.0347L17.214 18.5428H17.2805L17.2838 18.5395ZM17.2207 17.9849C17.2207 18.0878 17.1509 18.1377 17.0546 18.1377H16.8321V17.8321H17.0546C17.1509 17.8321 17.2207 17.8819 17.2207 17.9849Z" fill="black"/>
<path d="M18.2868 18.3342C18.2868 18.2744 18.2636 18.2213 18.2204 18.1881C18.1872 18.1615 18.1573 18.1482 18.0842 18.1382L18.0012 18.125C17.958 18.1183 17.9149 18.0984 17.8883 18.0785C17.8617 18.0552 17.8485 18.022 17.8485 17.9788C17.8485 17.8825 17.9149 17.8228 18.0245 17.8228C18.1141 17.8228 18.1606 17.8527 18.2071 17.8925L18.2436 17.856C18.1805 17.7995 18.1208 17.7729 18.0245 17.7729C17.8783 17.7729 17.7887 17.8526 17.7887 17.9788C17.7887 18.0386 17.8086 18.0851 17.8485 18.1183C17.8817 18.1449 17.9248 18.1648 17.9846 18.1748L18.0743 18.1881C18.1374 18.198 18.1573 18.2047 18.1839 18.2279C18.2104 18.2512 18.227 18.2877 18.227 18.3342C18.227 18.4338 18.1507 18.4903 18.0311 18.4903C17.9381 18.4903 17.885 18.4703 17.8152 18.4006L17.7754 18.4404C17.8451 18.5102 17.9149 18.5401 18.0278 18.5401C18.1839 18.5401 18.2835 18.4571 18.2835 18.3309" fill="black"/>
<path d="M19.9898 18.5399L19.7108 17.7827H19.661L19.3821 18.5399H19.4452L19.5116 18.3572H19.8636L19.93 18.5399H19.9898ZM19.847 18.3041H19.5315L19.6909 17.8591L19.8503 18.3041H19.847Z" fill="black"/>
<path d="M20.9421 18.3342C20.9421 18.2744 20.9188 18.2213 20.8757 18.1881C20.8425 18.1615 20.8126 18.1482 20.7395 18.1382L20.6565 18.125C20.6133 18.1183 20.5701 18.0984 20.5436 18.0785C20.517 18.0552 20.5037 18.022 20.5037 17.9788C20.5037 17.8825 20.5701 17.8228 20.6797 17.8228C20.7694 17.8228 20.8159 17.8527 20.8624 17.8925L20.8989 17.856C20.8358 17.7995 20.776 17.7729 20.6797 17.7729C20.5336 17.7729 20.4439 17.8526 20.4439 17.9788C20.4439 18.0386 20.4639 18.0851 20.5037 18.1183C20.5369 18.1449 20.5801 18.1648 20.6399 18.1748L20.7295 18.1881C20.7926 18.198 20.8126 18.2047 20.8391 18.2279C20.8657 18.2512 20.8823 18.2877 20.8823 18.3342C20.8823 18.4338 20.8059 18.4903 20.6864 18.4903C20.5934 18.4903 20.5403 18.4703 20.4705 18.4006L20.4307 18.4404C20.5004 18.5102 20.5701 18.5401 20.6831 18.5401C20.8391 18.5401 20.9388 18.4571 20.9388 18.3309" fill="black"/>
<path d="M21.9197 18.3342C21.9197 18.2744 21.8965 18.2213 21.8533 18.1881C21.8201 18.1615 21.7902 18.1482 21.7171 18.1382L21.6341 18.125C21.5909 18.1183 21.5478 18.0984 21.5212 18.0785C21.4946 18.0552 21.4814 18.022 21.4814 17.9788C21.4814 17.8825 21.5478 17.8228 21.6574 17.8228C21.747 17.8228 21.7935 17.8527 21.84 17.8925L21.8765 17.856C21.8134 17.7995 21.7537 17.7729 21.6607 17.7729C21.5146 17.7729 21.4249 17.8526 21.4249 17.9788C21.4249 18.0386 21.4448 18.0851 21.4847 18.1183C21.5179 18.1449 21.5611 18.1648 21.6208 18.1748L21.7105 18.1881C21.7736 18.198 21.7935 18.2047 21.8201 18.2279C21.8467 18.2512 21.8633 18.2877 21.8633 18.3342C21.8633 18.4338 21.7869 18.4903 21.6673 18.4903C21.5743 18.4903 21.5212 18.4703 21.4515 18.4006L21.4116 18.4404C21.4814 18.5102 21.5511 18.5401 21.664 18.5401C21.8201 18.5401 21.9197 18.4571 21.9197 18.3309" fill="black"/>
<path d="M22.9592 18.1612C22.9592 17.9918 22.9592 17.9221 22.8895 17.8557C22.8397 17.8059 22.7699 17.7793 22.7002 17.7793C22.6305 17.7793 22.5607 17.8059 22.5109 17.8557C22.4412 17.9254 22.4412 17.9918 22.4412 18.1612C22.4412 18.3306 22.4412 18.4003 22.5109 18.47C22.5607 18.5199 22.6305 18.5464 22.7002 18.5464C22.7699 18.5464 22.8397 18.5199 22.8895 18.47C22.9592 18.4003 22.9592 18.3339 22.9592 18.1612ZM22.9028 18.1612C22.9028 18.3239 22.8994 18.3837 22.843 18.4368C22.8031 18.4767 22.7533 18.4966 22.7002 18.4966C22.6471 18.4966 22.5939 18.4767 22.5574 18.4368C22.5043 18.3837 22.4976 18.3239 22.4976 18.1612C22.4976 17.9985 22.5009 17.9387 22.5574 17.8856C22.5972 17.8457 22.6471 17.8258 22.7002 17.8258C22.7533 17.8258 22.8065 17.8457 22.843 17.8856C22.8961 17.9387 22.9028 17.9985 22.9028 18.1612Z" fill="black"/>
<path d="M24.0241 18.3231H23.9677C23.9444 18.4261 23.868 18.4925 23.7684 18.4925C23.7153 18.4925 23.6621 18.4726 23.6256 18.4327C23.5725 18.3796 23.5658 18.3198 23.5658 18.1571C23.5658 17.9944 23.5691 17.9346 23.6256 17.8815C23.6655 17.8416 23.7153 17.8217 23.7684 17.8217C23.8713 17.8217 23.9444 17.8881 23.9677 17.9911H24.0274C24.0042 17.8549 23.9046 17.7686 23.7717 17.7686C23.6987 17.7686 23.6322 17.7951 23.5824 17.8449C23.5127 17.9147 23.5127 17.9811 23.5127 18.1538C23.5127 18.3265 23.5127 18.3929 23.5824 18.4626C23.6322 18.5124 23.6987 18.539 23.7717 18.539C23.9046 18.539 24.0042 18.456 24.0274 18.3165" fill="black"/>
<path d="M24.6517 17.7827H24.5952V18.5399H24.6517V17.7827Z" fill="black"/>
<path d="M25.7669 18.5399L25.4879 17.7827H25.4381L25.1592 18.5399H25.219L25.2854 18.3572H25.6374L25.7038 18.5399H25.7669ZM25.6208 18.3041H25.3053L25.4647 17.8591L25.6241 18.3041H25.6208Z" fill="black"/>
<path d="M26.6316 17.8325V17.7827H26.1235V17.8325H26.3494V18.5399H26.4058V17.8325H26.6316Z" fill="black"/>
<path d="M27.2127 17.7827H27.1562V18.5399H27.2127V17.7827Z" fill="black"/>
<path d="M28.3086 18.1612C28.3086 17.9918 28.3086 17.9221 28.2388 17.8557C28.189 17.8059 28.1193 17.7793 28.0496 17.7793C27.9798 17.7793 27.9101 17.8059 27.8603 17.8557C27.7905 17.9254 27.7905 17.9918 27.7905 18.1612C27.7905 18.3306 27.7905 18.4003 27.8603 18.47C27.9101 18.5199 27.9798 18.5464 28.0496 18.5464C28.1193 18.5464 28.189 18.5199 28.2388 18.47C28.3086 18.4003 28.3086 18.3339 28.3086 18.1612ZM28.2521 18.1612C28.2521 18.3239 28.2488 18.3837 28.1924 18.4368C28.1525 18.4767 28.1027 18.4966 28.0496 18.4966C27.9964 18.4966 27.9433 18.4767 27.9068 18.4368C27.8536 18.3837 27.847 18.3239 27.847 18.1612C27.847 17.9985 27.8503 17.9387 27.9068 17.8856C27.9466 17.8457 27.9964 17.8258 28.0496 17.8258C28.1027 17.8258 28.1558 17.8457 28.1924 17.8856C28.2455 17.9387 28.2521 17.9985 28.2521 18.1612Z" fill="black"/>
<path d="M29.4375 18.5399V17.7827H29.381V18.4369L28.9427 17.7827H28.8862V18.5399H28.9427V17.879L29.381 18.5399H29.4375Z" fill="black"/>
</g>
<defs>
<clipPath id="clip0_2521_352">
<rect width="29.0976" height="18.0789" fill="black" transform="translate(0.747803 0.467285)"/>
</clipPath>
</defs>
</svg>
