<svg width="237" height="45" viewBox="0 0 237 45" fill="none" xmlns="http://www.w3.org/2000/svg">
<path fill-rule="evenodd" clip-rule="evenodd" d="M18.031 4.15213C16.793 4.74913 15.784 5.50612 15.789 5.83512C15.793 6.16312 19.075 14.7551 23.082 24.9271C27.493 36.1241 30.951 43.5341 31.844 43.7061C32.656 43.8621 34.058 43.4141 34.961 42.7111L36.602 41.4321L28.958 22.1821C24.754 11.5941 21.082 2.96212 20.798 3.00012C20.513 3.03712 19.269 3.55613 18.031 4.15213ZM44.869 4.86613L42.486 6.66313L48.679 14.7971C52.084 19.2711 55.231 22.9321 55.671 22.9321C56.111 22.9321 57.185 22.1431 58.057 21.1791L59.643 19.4271L53.729 11.5301C50.476 7.18612 47.688 3.50612 47.533 3.35112C47.378 3.19612 46.179 3.87713 44.869 4.86613ZM69.03 11.4911L62.779 19.8851L65.311 21.5441C66.704 22.4561 68.066 22.9801 68.339 22.7071C70.822 20.2251 79.743 7.31712 79.493 6.56912C79.316 6.03812 78.296 5.04012 77.226 4.35112L75.281 3.09813L69.03 11.4911ZM108.478 10.7501L101.675 18.2701L103.812 20.3511L105.949 22.4321L112.864 14.9321C116.667 10.8071 119.765 7.20713 119.748 6.93213C119.732 6.65713 118.72 5.71112 117.5 4.83012L115.281 3.22913L108.478 10.7501ZM90.781 23.9321V43.9321H93.781H96.781V23.9321V3.93213H93.781H90.781V23.9321ZM124.781 6.43213V8.93213H139.781H154.781V6.43213V3.93213H139.781H124.781V6.43213ZM5.502 27.6021L0 41.4321L1.581 42.6821C5.141 45.4951 6.18 44.1641 11.619 29.8371C14.555 22.1031 16.804 15.6221 16.617 15.4351C16.43 15.2481 15.091 14.7971 13.641 14.4331L11.005 13.7711L5.502 27.6021ZM136.781 29.9321V44.0591L140.031 43.7451L143.281 43.4321V29.9321V16.4321L140.031 16.1191L136.781 15.8051V29.9321ZM43.781 32.9321V43.9321H46.781H49.781V32.9321V21.9321H46.781H43.781V32.9321ZM72.781 32.9321V43.9321H75.781H78.781V32.9321V21.9321H75.781H72.781V32.9321ZM103.812 26.9091L101.372 28.7491L108.166 36.3411C111.903 40.5161 115.301 43.9321 115.716 43.9321C116.131 43.9321 117.235 43.0881 118.168 42.0571L119.865 40.1811L113.166 32.8071C109.481 28.7511 106.418 25.3501 106.359 25.2501C106.3 25.1511 105.153 25.8971 103.812 26.9091Z" fill="black"/>
<path d="M166.117 12L169.332 3.81704H170.454L173.669 12H172.406L171.623 9.91919H168.163L167.379 12H166.117ZM168.56 8.8554H171.225L169.893 5.33673L168.56 8.8554ZM176.362 12.0935C174.936 12.0935 174.083 11.3571 173.989 10.0828H175.029C175.088 10.7609 175.591 11.17 176.35 11.17C177.052 11.17 177.508 10.831 177.508 10.305C177.508 8.86709 174.141 10.1179 174.141 7.76824C174.141 6.72783 175.018 6.01475 176.245 6.01475C177.613 6.01475 178.443 6.70445 178.525 7.85007H177.484C177.426 7.27726 176.935 6.90318 176.257 6.90318C175.672 6.90318 175.193 7.19543 175.193 7.72148C175.193 9.11258 178.572 7.79162 178.572 10.2465C178.572 11.3804 177.73 12.0935 176.362 12.0935ZM182.509 12.0935C180.744 12.0935 179.47 10.8193 179.47 9.05413C179.47 7.28895 180.744 6.01475 182.509 6.01475C184.274 6.01475 185.537 7.28895 185.537 9.05413C185.537 10.8193 184.274 12.0935 182.509 12.0935ZM182.509 11.0999C183.619 11.0999 184.379 10.2582 184.379 9.05413C184.379 7.85007 183.619 7.00839 182.509 7.00839C181.387 7.00839 180.627 7.85007 180.627 9.05413C180.627 10.2582 181.387 11.0999 182.509 11.0999ZM189.322 12.0935C187.475 12.0935 186.411 10.679 186.411 9.05413C186.411 7.42923 187.475 6.01475 189.322 6.01475C190.701 6.01475 191.893 6.83304 192.057 8.1657H190.923C190.818 7.49937 190.152 7.00839 189.345 7.00839C188.176 7.00839 187.591 7.92021 187.591 9.05413C187.591 10.1881 188.188 11.0999 189.357 11.0999C190.163 11.0999 190.748 10.679 190.935 10.0127H192.057C191.87 11.2518 190.83 12.0935 189.322 12.0935ZM193.292 12V6.10827H194.426V12H193.292ZM193.222 3.64169H194.485V5.06786H193.222V3.64169ZM197.808 12.0935C196.604 12.0935 195.797 11.3687 195.797 10.3166C195.797 9.18272 196.709 8.43457 198.088 8.43457H199.327C199.596 8.43457 199.725 8.34105 199.725 8.13063C199.725 7.41754 199.199 6.92656 198.299 6.92656C197.469 6.92656 196.884 7.44092 196.849 8.03711H195.797C195.891 6.8798 196.931 6.01475 198.334 6.01475C199.854 6.01475 200.847 6.89149 200.847 8.20077V12H199.725V11.0297C199.433 11.6727 198.696 12.0935 197.808 12.0935ZM198.03 11.1934C199.094 11.1934 199.725 10.5037 199.725 9.41652V9.31131H198.205C197.434 9.31131 196.931 9.6737 196.931 10.2933C196.931 10.831 197.364 11.1934 198.03 11.1934ZM204.95 12.0935C203.103 12.0935 202.039 10.679 202.039 9.05413C202.039 7.42923 203.103 6.01475 204.95 6.01475C206.329 6.01475 207.522 6.83304 207.685 8.1657H206.552C206.446 7.49937 205.78 7.00839 204.973 7.00839C203.804 7.00839 203.22 7.92021 203.22 9.05413C203.22 10.1881 203.816 11.0999 204.985 11.0999C205.792 11.0999 206.376 10.679 206.563 10.0127H207.685C207.498 11.2518 206.458 12.0935 204.95 12.0935ZM208.921 12V6.10827H210.055V12H208.921ZM208.851 3.64169H210.113V5.06786H208.851V3.64169ZM214.348 12.0935C212.583 12.0935 211.309 10.8193 211.309 9.05413C211.309 7.28895 212.583 6.01475 214.348 6.01475C216.113 6.01475 217.376 7.28895 217.376 9.05413C217.376 10.8193 216.113 12.0935 214.348 12.0935ZM214.348 11.0999C215.459 11.0999 216.218 10.2582 216.218 9.05413C216.218 7.85007 215.459 7.00839 214.348 7.00839C213.226 7.00839 212.466 7.85007 212.466 9.05413C212.466 10.2582 213.226 11.0999 214.348 11.0999ZM213.845 5.46532L214.804 3.73521H216.066L214.862 5.46532H213.845ZM218.636 12V6.10827H219.77V7.14867C220.085 6.41221 220.787 6.01475 221.663 6.01475C222.996 6.01475 223.861 6.97332 223.861 8.37612V12H222.727V8.59823C222.727 7.66303 222.178 7.03177 221.348 7.03177C220.424 7.03177 219.77 7.77993 219.77 8.80864V12H218.636ZM169.226 27.0935C167.473 27.0935 166.456 25.7959 166.456 24.0541C166.456 22.3123 167.461 21.0147 169.238 21.0147C170.033 21.0147 170.769 21.3888 171.132 21.9733V18.6417H172.266V27H171.132V26.1233C170.781 26.7078 170.033 27.0935 169.226 27.0935ZM169.413 26.0999C170.501 26.0999 171.214 25.2816 171.214 24.0541C171.214 22.8267 170.501 22.0084 169.413 22.0084C168.315 22.0084 167.602 22.8267 167.602 24.0541C167.602 25.2816 168.315 26.0999 169.413 26.0999ZM176.479 27.0935C174.655 27.0935 173.533 25.6557 173.533 24.0191C173.533 22.3708 174.562 21.0147 176.374 21.0147C178.186 21.0147 179.156 22.3123 179.156 23.8086C179.156 23.9606 179.144 24.1593 179.133 24.2646H174.644C174.737 25.3634 175.462 26.1233 176.479 26.1233C177.344 26.1233 177.905 25.7492 178.069 25.0828H179.203C179.004 26.2986 177.94 27.0935 176.479 27.0935ZM174.679 23.3878H178.011C177.94 22.4877 177.344 21.9266 176.374 21.9266C175.462 21.9266 174.854 22.4292 174.679 23.3878ZM183.283 27V18.817H184.779L187.386 25.34L189.993 18.817H191.489V27H190.32V20.9095L187.877 27H186.895L184.44 20.9095V27H183.283ZM194.908 27.0935C193.704 27.0935 192.897 26.3687 192.897 25.3166C192.897 24.1827 193.809 23.4346 195.189 23.4346H196.428C196.697 23.4346 196.825 23.341 196.825 23.1306C196.825 22.4175 196.299 21.9266 195.399 21.9266C194.569 21.9266 193.985 22.4409 193.95 23.0371H192.897C192.991 21.8798 194.031 21.0147 195.434 21.0147C196.954 21.0147 197.948 21.8915 197.948 23.2008V27H196.825V26.0297C196.533 26.6727 195.797 27.0935 194.908 27.0935ZM195.13 26.1934C196.194 26.1934 196.825 25.5037 196.825 24.4165V24.3113H195.306C194.534 24.3113 194.031 24.6737 194.031 25.2933C194.031 25.831 194.464 26.1934 195.13 26.1934ZM199.525 27V21.1083H200.659V22.2422C200.928 21.459 201.396 21.1083 202.226 21.1083H202.939V22.0902H202.085C201.01 22.0902 200.659 23.0488 200.659 24.3347V27H199.525ZM203.92 27V18.6417H205.054V23.4696L207.626 21.1083H209.099L206.621 23.4112L209.321 27H207.918L205.814 24.171L205.054 24.8724V27H203.92ZM212.302 27.0935C210.479 27.0935 209.357 25.6557 209.357 24.0191C209.357 22.3708 210.385 21.0147 212.197 21.0147C214.009 21.0147 214.979 22.3123 214.979 23.8086C214.979 23.9606 214.968 24.1593 214.956 24.2646H210.467C210.561 25.3634 211.285 26.1233 212.302 26.1233C213.167 26.1233 213.729 25.7492 213.892 25.0828H215.026C214.827 26.2986 213.764 27.0935 212.302 27.0935ZM210.502 23.3878H213.834C213.764 22.4877 213.167 21.9266 212.197 21.9266C211.285 21.9266 210.678 22.4292 210.502 23.3878ZM218.671 27C217.478 27 216.707 26.2752 216.707 25.0712V22.0902H215.503V21.1083H216.707V19.2613H217.841V21.1083H219.582V22.0902H217.841V25.0361C217.841 25.6673 218.191 26.018 218.752 26.018H219.582V27H218.671ZM220.702 27V21.1083H221.836V27H220.702ZM220.632 18.6417H221.894V20.0679H220.632V18.6417ZM223.487 27V21.1083H224.621V22.1487C224.937 21.4122 225.638 21.0147 226.515 21.0147C227.848 21.0147 228.713 21.9733 228.713 23.3761V27H227.579V23.5982C227.579 22.663 227.029 22.0318 226.199 22.0318C225.276 22.0318 224.621 22.7799 224.621 23.8086V27H223.487ZM230.7 29.3847V28.4379H233.424C234.114 28.4379 234.593 27.9352 234.593 27.2104V26.2518C234.301 26.7545 233.541 27.0935 232.688 27.0935C230.934 27.0935 229.917 25.7959 229.917 24.0541C229.917 22.3123 230.923 21.0147 232.699 21.0147C233.459 21.0147 234.219 21.3654 234.593 21.8915V21.1083H235.727V27.2806C235.727 28.5431 234.862 29.3847 233.541 29.3847H230.7ZM232.875 26.0999C233.962 26.0999 234.675 25.2816 234.675 24.0541C234.675 22.8267 233.962 22.0084 232.875 22.0084C231.776 22.0084 231.063 22.8267 231.063 24.0541C231.063 25.2816 231.776 26.0999 232.875 26.0999ZM169.226 42.0935C167.473 42.0935 166.456 40.7959 166.456 39.0541C166.456 37.3123 167.461 36.0147 169.238 36.0147C170.033 36.0147 170.769 36.3888 171.132 36.9733V33.6417H172.266V42H171.132V41.1233C170.781 41.7078 170.033 42.0935 169.226 42.0935ZM169.413 41.0999C170.501 41.0999 171.214 40.2816 171.214 39.0541C171.214 37.8267 170.501 37.0084 169.413 37.0084C168.315 37.0084 167.602 37.8267 167.602 39.0541C167.602 40.2816 168.315 41.0999 169.413 41.0999ZM176.479 42.0935C174.655 42.0935 173.533 40.6557 173.533 39.0191C173.533 37.3708 174.562 36.0147 176.374 36.0147C178.186 36.0147 179.156 37.3123 179.156 38.8086C179.156 38.9606 179.144 39.1593 179.133 39.2646H174.644C174.737 40.3634 175.462 41.1233 176.479 41.1233C177.344 41.1233 177.905 40.7492 178.069 40.0828H179.203C179.004 41.2986 177.94 42.0935 176.479 42.0935ZM174.679 38.3878H178.011C177.94 37.4877 177.344 36.9266 176.374 36.9266C175.462 36.9266 174.854 37.4292 174.679 38.3878ZM183.283 42V33.817H188.532V34.8925H184.499V37.2422H187.76V38.3177H184.499V40.9245H188.66V42H183.283ZM191.797 42.0935C190.37 42.0935 189.517 41.3571 189.423 40.0828H190.464C190.522 40.7609 191.025 41.17 191.785 41.17C192.486 41.17 192.942 40.831 192.942 40.305C192.942 38.8671 189.575 40.1179 189.575 37.7682C189.575 36.7278 190.452 36.0147 191.68 36.0147C193.047 36.0147 193.877 36.7045 193.959 37.8501H192.919C192.86 37.2773 192.369 36.9032 191.691 36.9032C191.107 36.9032 190.628 37.1954 190.628 37.7215C190.628 39.1126 194.006 37.7916 194.006 40.2465C194.006 41.3804 193.164 42.0935 191.797 42.0935ZM195.301 44.3847V36.1083H196.435V36.9733C196.798 36.3888 197.534 36.0147 198.317 36.0147C200.094 36.0147 201.111 37.3123 201.111 39.0541C201.111 40.7959 200.094 42.0935 198.329 42.0935C197.534 42.0935 196.786 41.7078 196.435 41.1233V44.3847H195.301ZM198.154 41.0999C199.241 41.0999 199.966 40.2816 199.966 39.0541C199.966 37.8267 199.241 37.0084 198.154 37.0084C197.067 37.0084 196.342 37.8267 196.342 39.0541C196.342 40.2816 197.067 41.0999 198.154 41.0999ZM204.132 42.0935C202.928 42.0935 202.122 41.3687 202.122 40.3166C202.122 39.1827 203.033 38.4346 204.413 38.4346H205.652C205.921 38.4346 206.049 38.341 206.049 38.1306C206.049 37.4175 205.523 36.9266 204.623 36.9266C203.793 36.9266 203.209 37.4409 203.174 38.0371H202.122C202.215 36.8798 203.255 36.0147 204.658 36.0147C206.178 36.0147 207.172 36.8915 207.172 38.2008V42H206.049V41.0297C205.757 41.6727 205.021 42.0935 204.132 42.0935ZM204.354 41.1934C205.418 41.1934 206.049 40.5037 206.049 39.4165V39.3113H204.53C203.758 39.3113 203.255 39.6737 203.255 40.2933C203.255 40.831 203.688 41.1934 204.354 41.1934ZM208.749 42V36.1083H209.883V37.1487C210.199 36.4122 210.9 36.0147 211.777 36.0147C213.11 36.0147 213.975 36.9733 213.975 38.3761V42H212.841V38.5982C212.841 37.663 212.291 37.0318 211.461 37.0318C210.538 37.0318 209.883 37.7799 209.883 38.8086V42H208.749ZM212.093 35.2315C211.415 35.2315 211.099 34.7172 210.702 34.7172C210.444 34.7172 210.234 34.9042 210.234 35.1848H209.451C209.451 34.4015 209.942 33.8638 210.573 33.8638C211.251 33.8638 211.555 34.3782 211.964 34.3782C212.221 34.3782 212.432 34.2028 212.432 33.9222H213.215C213.215 34.7055 212.724 35.2315 212.093 35.2315ZM217.283 42.0935C216.079 42.0935 215.273 41.3687 215.273 40.3166C215.273 39.1827 216.185 38.4346 217.564 38.4346H218.803C219.072 38.4346 219.201 38.341 219.201 38.1306C219.201 37.4175 218.675 36.9266 217.774 36.9266C216.944 36.9266 216.36 37.4409 216.325 38.0371H215.273C215.366 36.8798 216.407 36.0147 217.809 36.0147C219.329 36.0147 220.323 36.8915 220.323 38.2008V42H219.201V41.0297C218.908 41.6727 218.172 42.0935 217.283 42.0935ZM217.506 41.1934C218.569 41.1934 219.201 40.5037 219.201 39.4165V39.3113H217.681C216.909 39.3113 216.407 39.6737 216.407 40.2933C216.407 40.831 216.839 41.1934 217.506 41.1934Z" fill="black"/>
</svg>
