<svg width="131" height="59" viewBox="0 0 131 59" fill="none" xmlns="http://www.w3.org/2000/svg">
<path d="M31.0278 4.06019C29.4222 1.78732 27.0481 0.369382 24.3433 0.0685171C23.9203 0.0238342 23.4913 0 23.0713 0C21.2631 0 19.6188 0.473646 17.7511 1.62647C17.9119 1.75456 19.1214 2.72864 20.1371 3.66103C20.9325 3.26484 21.713 3.01462 22.6305 2.95802C22.7734 2.94908 23.7028 2.96099 24.0186 2.99674C27.9447 3.43165 30.2891 7.09565 30.2891 11.5252C30.2891 11.8648 30.1997 13.2321 30.167 13.4943C30.1372 13.7594 29.8959 15.216 29.7827 15.6986C29.7082 16.0174 29.6248 16.348 29.5295 16.6846C29.4341 17.0212 28.8146 18.7817 28.5733 19.3269C28.0877 20.4201 27.4711 21.5431 26.6847 22.6543C26.5536 22.8389 25.6957 23.9411 25.377 24.3045C24.5756 25.2071 23.6462 26.0889 22.5679 26.917C19.8154 29.032 17.5009 29.2375 16.64 29.2375H16.5833C15.7225 29.2375 13.4079 29.032 10.6554 26.917C9.57705 26.0889 8.64767 25.2101 7.84635 24.3045C7.52463 23.9441 7.22674 23.5777 6.94375 23.2083C6.80374 23.0236 6.18414 22.1419 6.02031 21.8827C5.03132 20.3307 4.34915 18.7698 3.88445 17.3251C3.81594 17.1106 3.75039 16.8961 3.69082 16.6846C3.06823 14.4952 2.93123 12.6244 2.93123 11.5252C2.93123 9.17192 3.59254 7.03608 4.80196 5.48409C5.15645 5.02832 5.56155 4.6232 6.00838 4.27765C6.36584 4.00062 6.7531 3.76231 7.16716 3.56868C7.78677 3.27675 8.46891 3.08015 9.20469 2.99972C9.49364 2.96695 10.1013 2.94312 10.1013 2.94312C13.3751 2.84184 17.1434 6.38967 19.166 8.64467C17.6289 9.54726 16.6608 10.6435 16.6608 10.6435H16.5714C16.5714 10.6435 15.5854 9.52641 14.0245 8.62083L15.6331 6.9616C15.6331 6.9616 14.4594 5.99049 13.2381 5.17428C12.5589 5.84453 11.8767 6.58031 11.2095 7.3578L11.0456 7.54547C10.5422 7.47397 10.0209 7.45908 9.48174 7.51866C5.70455 7.93868 5.45432 11.4567 5.45432 12.7853C5.45432 14.5994 6.9199 20.9265 12.1776 24.9033C14.4981 26.6578 16.2944 26.7174 16.6161 26.7145C16.6489 26.7145 16.6727 26.7145 16.6727 26.7145C16.6727 26.7145 18.4928 26.8455 21.0576 24.9063C26.3153 20.9295 27.7779 14.6024 27.7779 12.7883C27.7779 11.4627 27.5277 7.94165 23.7535 7.52163C23.1905 7.45907 22.6423 7.47993 22.1181 7.56036C22.1181 7.56036 20.1729 5.38579 19.2613 4.53979L19.2554 4.53383C19.2554 4.53383 18.606 3.95594 18.4749 3.84274C18.0966 3.52102 17.5932 3.10398 17.0093 2.65715C16.9617 2.6214 16.911 2.58565 16.8664 2.54991C15.3591 1.45666 13.0266 0.00596354 10.158 0.00596354C9.73793 0.00596354 9.30897 0.0297886 8.88895 0.0744716C6.18415 0.375337 3.80699 1.79328 2.20138 4.06616C0.759614 6.1037 0 8.68339 0 11.5252C0 14.0841 0.640467 22.9283 8.87404 29.2495C12.1925 31.7964 15.1326 32.1777 16.5923 32.1777H16.6548C18.1115 32.1777 21.0487 31.7964 24.3671 29.2495C32.6007 22.9283 33.2412 14.0841 33.2412 11.5252C33.2412 8.68339 32.4786 6.1037 31.0398 4.06616" fill="white"/>
<path d="M53.0379 26.8108V24.0017H43.1004V17.9189H49.8863V15.1128H43.1004V10.3496H52.6238V7.54053H40.2109V26.8108H53.0379Z" fill="white"/>
<path d="M63.4637 27.1148C60.6547 27.1148 58.2329 25.9054 56.6094 24.0048L58.6737 21.9941C59.9695 23.4001 61.8671 24.2789 63.6842 24.2789C66.383 24.2789 67.6759 23.3435 67.6759 21.4698C67.6759 19.9834 66.5469 19.2387 63.3267 18.2765C59.2516 17.0641 57.2975 16.0453 57.2975 12.6047C57.2975 9.16414 60.1036 7.23682 63.6544 7.23682C66.2698 7.23682 68.2508 8.19899 69.9577 9.85226L67.9201 11.9166C66.7107 10.6774 65.3315 10.0727 63.434 10.0727C61.176 10.0727 60.2138 11.1719 60.2138 12.4677C60.2138 13.7635 61.0955 14.4784 64.4259 15.4674C68.2269 16.6232 70.5922 17.8356 70.5922 21.2732C70.5922 24.7108 68.3908 27.1088 63.4637 27.1088" fill="white"/>
<path d="M82.1628 27.1152C77.1792 27.1152 74.0156 23.0133 74.0156 17.1777C74.0156 11.3421 77.1821 7.24023 82.1628 7.24023C85.2996 7.24023 87.3937 8.50625 88.7133 10.8476L86.1545 12.4443C85.1625 10.8744 84.1438 10.1327 82.1628 10.1327C78.8056 10.1327 76.9855 12.8584 76.9855 17.1807C76.9855 21.503 78.8027 24.2287 82.1628 24.2287C84.1735 24.2287 85.4127 23.4006 86.4017 21.8337L88.7967 23.4304C87.4205 25.7986 85.0791 27.1182 82.1628 27.1182" fill="white"/>
<path d="M40.2734 42.8058V34.2803H45.4269V35.1441H41.2237V37.8221H43.6604V38.689H41.2237V41.9389H45.6086V42.8058H40.2734Z" fill="white"/>
<path d="M50.905 42.8038V42.0233C50.5386 42.5595 49.9428 42.9378 49.1385 42.9378C47.7861 42.9378 46.8984 42.1454 46.8984 40.3075V36.4111H47.8129V40.1496C47.8129 41.5258 48.3015 42.1454 49.3232 42.1454C50.2109 42.1454 50.905 41.5497 50.905 40.1496V36.4111H51.8195V42.8038H50.905Z" fill="white"/>
<path d="M56.8742 37.3626C56.618 37.2167 56.338 37.1184 55.912 37.1184C55.0243 37.1184 54.5239 37.8363 54.5239 39.0546V42.805H53.6094V36.4124H54.5239V37.2048C54.8158 36.6924 55.4265 36.2783 56.1057 36.2783C56.5793 36.2783 56.8861 36.3379 57.1036 36.4362L56.8712 37.3626H56.8742Z" fill="white"/>
<path d="M60.44 42.943C58.882 42.943 57.6875 41.7872 57.6875 39.6186C57.6875 37.4499 58.9297 36.2822 60.4876 36.2822C62.0456 36.2822 63.2401 37.4023 63.2401 39.5709C63.2401 41.7395 61.9979 42.943 60.44 42.943ZM60.4638 37.0716C59.3557 37.0716 58.6139 37.9117 58.6139 39.5917C58.6139 41.2718 59.3557 42.1476 60.4638 42.1476C61.572 42.1476 62.3286 41.2718 62.3286 39.5917C62.3286 37.9117 61.572 37.0716 60.4638 37.0716Z" fill="white"/>
<path d="M67.3935 42.943C66.5892 42.943 66.041 42.6034 65.5912 42.091V44.6499L64.6797 45.1622V36.4163H65.5912V37.1967C66.041 36.7082 66.6517 36.2822 67.5156 36.2822C68.7935 36.2822 69.8063 37.2563 69.8063 39.5083C69.8063 41.7604 68.734 42.943 67.3935 42.943ZM67.2862 37.0716C66.604 37.0716 66.044 37.438 65.5942 37.9981V41.1884C65.9487 41.7246 66.5683 42.1506 67.3249 42.1506C68.3854 42.1506 68.9067 41.2361 68.9067 39.5202C68.9067 37.9117 68.299 37.0716 67.2862 37.0716Z" fill="white"/>
<path d="M76.0913 39.9224H71.8286C71.9149 41.2867 72.5584 42.1506 73.607 42.1506C74.3487 42.1506 74.7866 41.9302 75.3734 41.5429L75.7994 42.2012C75.0309 42.6898 74.4708 42.943 73.5086 42.943C72.3379 42.943 70.9141 42.091 70.9141 39.5828C70.9141 37.5482 72.0341 36.2822 73.5563 36.2822C75.2245 36.2822 76.1271 37.5989 76.1271 39.4249C76.1271 39.6454 76.1152 39.7794 76.0913 39.9254M73.5444 37.0716C72.5941 37.0716 71.9358 37.7538 71.8286 39.1777H75.2751C75.2036 37.9355 74.6674 37.0716 73.5444 37.0716Z" fill="white"/>
<path d="M81.1703 42.8059V42.0255C80.7205 42.514 80.086 42.94 79.1715 42.94C78.1736 42.94 77.125 42.4395 77.125 40.8935C77.125 39.4577 78.3046 38.847 79.5736 38.847C80.22 38.847 80.792 39.0049 81.1703 39.2134V38.4598C81.1703 37.5095 80.7205 37.0478 79.7822 37.0478C79.1119 37.0478 78.5638 37.2295 78.0395 37.5363L77.6999 36.7946C78.26 36.4907 79.0166 36.2822 79.8447 36.2822C81.2209 36.2822 82.0848 36.8661 82.0848 38.3525V42.8089H81.1703V42.8059ZM81.1703 39.9432C80.7563 39.7109 80.3064 39.5768 79.526 39.5768C78.5876 39.5768 78.0276 40.0267 78.0276 40.8309C78.0276 41.7812 78.5519 42.1953 79.3294 42.1953C80.1575 42.1953 80.7801 41.7693 81.1673 41.2331V39.9432H81.1703Z" fill="white"/>
<path d="M87.8533 42.8089V39.0704C87.8533 37.6942 87.3648 37.0716 86.343 37.0716C85.4553 37.0716 84.7582 37.6674 84.7582 39.0704V42.8089H83.8438V36.4163H84.7582V37.1967C85.1246 36.6605 85.7204 36.2822 86.5247 36.2822C87.8771 36.2822 88.7648 37.0746 88.7648 38.9126V42.8089H87.8503H87.8533Z" fill="white"/>
<path d="M95.9565 42.9396C94.8007 42.9396 93.764 42.4392 93.0938 41.757L93.7282 41.0511C94.3747 41.6707 95.1164 42.0728 95.9922 42.0728C97.1242 42.0728 97.8301 41.5128 97.8301 40.6102C97.8301 39.8178 97.3565 39.368 95.7956 38.808C93.9576 38.1496 93.3351 37.5539 93.3351 36.3236C93.3351 34.9593 94.4074 34.1431 96.0011 34.1431C97.145 34.1431 97.8778 34.4827 98.5957 35.0576L97.988 35.7993C97.3684 35.2869 96.7935 35.0069 95.9416 35.0069C94.7709 35.0069 94.2853 35.5908 94.2853 36.261C94.2853 36.967 94.6011 37.3692 96.308 37.9798C98.1966 38.662 98.7804 39.2935 98.7804 40.5625C98.7804 41.903 97.7319 42.9367 95.9565 42.9367" fill="white"/>
<path d="M102.721 42.943C101.163 42.943 99.9688 41.7872 99.9688 39.6186C99.9688 37.4499 101.211 36.2822 102.769 36.2822C104.327 36.2822 105.521 37.4023 105.521 39.5709C105.521 41.7395 104.279 42.943 102.721 42.943ZM102.748 37.0716C101.64 37.0716 100.898 37.9117 100.898 39.5917C100.898 41.2718 101.64 42.1476 102.748 42.1476C103.856 42.1476 104.613 41.2718 104.613 39.5917C104.613 37.9117 103.856 37.0716 102.748 37.0716Z" fill="white"/>
<path d="M110.868 37.7132C110.406 37.2991 109.98 37.0668 109.333 37.0668C108.336 37.0668 107.567 37.9694 107.567 39.5631C107.567 41.1568 108.237 42.1458 109.369 42.1458C109.992 42.1458 110.406 41.8896 110.844 41.4636L111.392 42.0475C110.856 42.5956 110.236 42.9351 109.333 42.9351C107.933 42.9351 106.641 41.8628 106.641 39.6346C106.641 37.2723 108.053 36.2744 109.393 36.2744C110.257 36.2744 110.915 36.5902 111.416 37.0281L110.868 37.7102V37.7132Z" fill="white"/>
<path d="M113.295 35.2696C112.917 35.2696 112.625 34.9777 112.625 34.6232C112.625 34.2687 112.917 33.9648 113.295 33.9648C113.635 33.9648 113.93 34.2568 113.93 34.6232C113.93 34.9896 113.638 35.2696 113.295 35.2696ZM112.822 36.4135H113.736V42.8061H112.822V36.4135Z" fill="white"/>
<path d="M120.427 39.9224H116.165C116.251 41.2867 116.894 42.1506 117.943 42.1506C118.685 42.1506 119.123 41.9302 119.709 41.5429L120.135 42.2012C119.367 42.6898 118.807 42.943 117.845 42.943C116.674 42.943 115.25 42.091 115.25 39.5828C115.25 37.5482 116.37 36.2822 117.892 36.2822C119.56 36.2822 120.463 37.5989 120.463 39.4249C120.463 39.6454 120.451 39.7794 120.427 39.9254M117.883 37.0716C116.933 37.0716 116.275 37.7538 116.168 39.1777H119.614C119.543 37.9355 119.006 37.0716 117.883 37.0716Z" fill="white"/>
<path d="M122.993 37.1767V41.3411C122.993 41.9131 123.151 42.1097 123.639 42.1097C124.006 42.1097 124.247 42.0501 124.542 41.928L124.482 42.7204C124.128 42.8663 123.788 42.9408 123.3 42.9408C122.507 42.9408 122.081 42.5506 122.081 41.4901V37.1797H121.289V36.4111H122.081V34.4391L122.996 33.9268V36.4111H124.578V37.1797H122.996L122.993 37.1767Z" fill="white"/>
<path d="M127.533 45.0549H126.619L127.498 42.7284L125.219 36.4072H126.181L127.739 41.0483L127.959 41.7066L128.177 41.0602L129.75 36.4072H130.712L127.533 45.0549Z" fill="white"/>
<path d="M43.065 56.2232C41.507 56.2232 40.3125 55.0674 40.3125 52.8988C40.3125 50.7302 41.5547 49.5625 43.1126 49.5625C44.6706 49.5625 45.8651 50.6825 45.8651 52.8512C45.8651 55.0198 44.6229 56.2262 43.065 56.2262M43.0888 50.3549C41.9806 50.3549 41.2389 51.1949 41.2389 52.875C41.2389 54.5551 41.9806 55.4338 43.0888 55.4338C44.1969 55.4338 44.9536 54.5581 44.9536 52.875C44.9536 51.1919 44.1999 50.3549 43.0888 50.3549Z" fill="white"/>
<path d="M49.1361 48.0781C48.7578 48.0781 48.4778 48.2121 48.4778 48.7483V49.6986H49.7319V50.4671H48.4778V56.0942H47.5633V50.4671H46.6875V49.6986H47.5633V48.8228C47.5633 47.6789 48.1858 47.2529 49.0735 47.2529C49.4399 47.2529 49.6574 47.2887 49.8779 47.3631V48.227C49.6723 48.1287 49.428 48.0811 49.1361 48.0811" fill="white"/>
<path d="M57.3606 56.2248C55.2784 56.2248 53.9141 54.3362 53.9141 51.8399C53.9141 49.3436 55.3379 47.4312 57.3963 47.4312C58.5641 47.4312 59.4428 47.869 60.1131 48.7955L59.3594 49.3674C58.8113 48.6257 58.2989 48.295 57.3755 48.295C55.9129 48.295 54.8673 49.7428 54.8673 51.816C54.8673 53.8893 55.9516 55.3609 57.3874 55.3609C58.3138 55.3609 58.9454 54.9468 59.4935 54.2408L60.1518 54.8128C59.5292 55.6528 58.6058 56.2248 57.3636 56.2248" fill="white"/>
<path d="M65.1078 56.0901V55.3096C64.658 55.7982 64.0235 56.2242 63.109 56.2242C62.1111 56.2242 61.0625 55.7237 61.0625 54.1777C61.0625 52.7419 62.2421 52.1312 63.5111 52.1312C64.1575 52.1312 64.7295 52.2891 65.1078 52.4976V51.744C65.1078 50.7937 64.658 50.332 63.7196 50.332C63.0494 50.332 62.5013 50.5137 61.977 50.8205L61.6344 50.0788C62.1944 49.7749 62.9511 49.5664 63.7792 49.5664C65.1555 49.5664 66.0193 50.1503 66.0193 51.6367V56.0931H65.1048L65.1078 56.0901ZM65.1078 53.2274C64.6937 52.9951 64.2439 52.861 63.4634 52.861C62.5251 52.861 61.9651 53.3108 61.9651 54.1151C61.9651 55.0654 62.4893 55.4794 63.2668 55.4794C64.095 55.4794 64.7175 55.0535 65.1048 54.5173V53.2274H65.1078Z" fill="white"/>
<path d="M71.0353 50.6468C70.7791 50.5008 70.4991 50.4025 70.0731 50.4025C69.1854 50.4025 68.685 51.1204 68.685 52.3388V56.0892H67.7734V49.6965H68.685V50.4889C68.9769 49.9766 69.5876 49.5625 70.2697 49.5625C70.7434 49.5625 71.0502 49.6221 71.2676 49.7204L71.0353 50.6468Z" fill="white"/>
<path d="M76.0198 56.09V55.3095C75.57 55.7981 74.9593 56.224 74.0955 56.224C72.8175 56.224 71.8047 55.25 71.8047 52.995C71.8047 50.74 72.8771 49.5603 74.2176 49.5603C75.0219 49.5603 75.57 49.8999 76.0198 50.4123V47.7194L76.9343 47.207V56.084H76.0198V56.09ZM76.0198 51.3179C75.6653 50.7817 75.0457 50.3557 74.289 50.3557C73.2286 50.3557 72.7073 51.2702 72.7073 52.986C72.7073 54.5946 73.315 55.4347 74.3278 55.4347C75.0099 55.4347 75.57 55.0682 76.0198 54.5082V51.3179Z" fill="white"/>
<path d="M79.2718 48.5499C78.8935 48.5499 78.6016 48.2579 78.6016 47.9034C78.6016 47.549 78.8935 47.2451 79.2718 47.2451C79.6114 47.2451 79.9063 47.537 79.9063 47.9034C79.9063 48.2698 79.6144 48.5499 79.2718 48.5499ZM78.7952 49.6967H79.7097V56.0894H78.7952V49.6967Z" fill="white"/>
<path d="M83.979 56.2232C82.4211 56.2232 81.2266 55.0674 81.2266 52.8988C81.2266 50.7302 82.4688 49.5625 84.0267 49.5625C85.5846 49.5625 86.7792 50.6825 86.7792 52.8512C86.7792 55.0198 85.537 56.2262 83.979 56.2262M84.0028 50.3549C82.8947 50.3549 82.153 51.1949 82.153 52.875C82.153 54.5551 82.8947 55.4338 84.0028 55.4338C85.111 55.4338 85.8676 54.5581 85.8676 52.875C85.8676 51.1919 85.111 50.3549 84.0028 50.3549Z" fill="white"/>
<path d="M88.3047 56.0879V47.7203L89.2192 47.2109V56.0879H88.3047Z" fill="white"/>
<path d="M93.4947 56.2232C91.9367 56.2232 90.7422 55.0674 90.7422 52.8988C90.7422 50.7302 91.9843 49.5625 93.5423 49.5625C95.1002 49.5625 96.2948 50.6825 96.2948 52.8512C96.2948 55.0198 95.0526 56.2262 93.4947 56.2262M93.5185 50.3549C92.4103 50.3549 91.6686 51.1949 91.6686 52.875C91.6686 54.5551 92.4103 55.4338 93.5185 55.4338C94.6266 55.4338 95.3832 54.5581 95.3832 52.875C95.3832 51.1919 94.6266 50.3549 93.5185 50.3549Z" fill="white"/>
<path d="M99.2402 58.4395L98.9482 57.7454C101.078 57.6859 101.567 57.1229 101.567 55.6394V55.3117C101.117 55.8002 100.506 56.2262 99.6423 56.2262C98.3644 56.2262 97.3516 55.2521 97.3516 52.9971C97.3516 50.7421 98.4239 49.5625 99.7615 49.5625C100.566 49.5625 101.114 49.9021 101.564 50.4145V49.6965H102.478V55.5172C102.478 57.4416 101.614 58.368 99.2372 58.4395M101.567 51.317C101.212 50.7809 100.593 50.3549 99.8359 50.3549C98.7754 50.3549 98.2542 51.2694 98.2542 52.9852C98.2542 54.5938 98.8618 55.4338 99.8747 55.4338C100.557 55.4338 101.117 55.0674 101.567 54.5074V51.317Z" fill="white"/>
<path d="M105.822 58.3508H104.908L105.787 56.0243L103.508 49.7031H104.47L106.028 54.3412L106.248 54.9995L106.469 54.3561L108.039 49.7031H109.001L105.822 58.3508Z" fill="white"/>
</svg>
