<?xml version="1.0" encoding="utf-8"?>
<!-- Generator: Adobe Illustrator 28.3.0, SVG Export Plug-In . SVG Version: 6.00 Build 0)  -->
<svg version="1.1" id="Layer_1" xmlns="http://www.w3.org/2000/svg" xmlns:xlink="http://www.w3.org/1999/xlink" x="0px" y="0px"
	 viewBox="0 0 198.5 235.5" style="enable-background:new 0 0 198.5 235.5;" xml:space="preserve">
<style type="text/css">
	.st0{fill:#0a0b0c;}
</style>
<path class="st0" d="M99.2,2.8c-47.8,0-86.7,38.8-86.7,86.6S51.4,176,99.2,176s86.6-38.8,86.6-86.6C185.9,41.5,147.1,2.8,99.2,2.8z
	 M152.8,52c5.3,0,9.6,4.3,9.6,9.6s-4.3,9.6-9.6,9.6s-9.6-4.3-9.6-9.6S147.5,52,152.8,52z M116.8,52c5.3,0,9.6,4.3,9.6,9.6
	s-4.3,9.6-9.6,9.6s-9.6-4.3-9.6-9.6S111.5,52,116.8,52z M80.8,52c5.3,0,9.6,4.3,9.6,9.6s-4.3,9.6-9.6,9.6s-9.6-4.3-9.6-9.6
	C71.3,56.3,75.6,52,80.8,52z M44.9,52c5.3,0,9.6,4.3,9.6,9.6s-4.3,9.6-9.6,9.6s-9.6-4.3-9.6-9.6S39.6,52,44.9,52z M31.7,99.2
	c0,2.6-9.6,2.6-9.6,0V79.6c0-2.7,9.6-2.7,9.6,0V99.2z M54.5,124.1c0,5.3-19.2,5.3-19.2,0V80.3c0-5.3,19.2-5.3,19.2,0
	C54.5,80.3,54.5,124.1,54.5,124.1z M67.7,99.2c0,2.6-9.6,2.6-9.6,0V79.6c0-2.7,9.6-2.7,9.6,0V99.2z M90.5,124.1
	c0,5.3-19.2,5.3-19.2,0V80.3c0-5.3,19.2-5.3,19.2,0C90.5,80.3,90.5,124.1,90.5,124.1z M103.6,99.2c0,2.6-9.6,2.6-9.6,0V79.6
	c0-2.7,9.6-2.7,9.6,0V99.2z M126.4,124.1c0,5.3-19.2,5.3-19.2,0V80.3c0-5.3,19.2-5.3,19.2,0C126.4,80.3,126.4,124.1,126.4,124.1z
	 M139.6,99.2c0,2.6-9.6,2.6-9.6,0V79.6c0-2.7,9.6-2.7,9.6,0V99.2z M162.4,124.1c0,5.3-19.2,5.3-19.2,0V80.3c0-5.3,19.2-5.3,19.2,0
	C162.4,80.3,162.4,124.1,162.4,124.1z M165.9,99.2V79.6c0-2.7,9.6-2.7,9.6,0v19.6C175.5,101.9,165.9,101.9,165.9,99.2z"/>
<path class="st0" d="M14.5,229.6c0,1.2-1,2.2-2.2,2.2H4.1c-1.2,0-2.2-1-2.2-2.2V190c0-1.2,1-2.2,2.2-2.2h8.2c1.2,0,2.2,1,2.2,2.2
	C14.5,190,14.5,229.6,14.5,229.6z M175.2,214.7c0.6,0,1.1-0.5,1.1-1.1c0-0.2,0-0.3-0.1-0.5l-5.9-12.7c-0.2-0.4-0.6-0.7-1-0.7
	c-0.5,0-0.9,0.3-1,0.7l-5.9,12.7c-0.1,0.1-0.1,0.3-0.1,0.5c0,0.6,0.5,1.1,1.1,1.1H175.2L175.2,214.7z M173.9,187.9
	c1.1,0,2,0.6,2.5,1.4l19.9,39.7c0.1,0.3,0.2,0.6,0.2,0.9c0,1-0.9,1.9-1.9,1.9h-8.1c-1,0-2.2-0.2-2.9-1.5l-2.4-5.2
	c-0.3-0.6-0.9-1-1.6-1h-20.9c-0.7,0-1.3,0.4-1.6,1l-2.4,5.2c-0.7,1.3-1.8,1.5-2.9,1.5h-8.1c-1.1,0-1.9-0.8-1.9-1.9
	c0-0.3,0.1-0.6,0.2-0.9l19.9-39.7c0.5-0.9,1.4-1.4,2.5-1.4H173.9z M36.2,209.8c0,7.7,6.2,14.2,15.8,14.2c5.2,0,9.2-2.5,11.6-6.3
	c0.9-1.5,1.4-2.2,3.4-2.2h8.8c1.6,0,2.3,1.4,2,2.6C75.9,226,66.7,232.8,52,233c-17.2,0.2-28.5-10.1-28.5-23.1s11.3-23.4,28.5-23.1
	c14.7,0.2,23.9,7,25.8,14.8c0.3,1.2-0.4,2.6-2,2.6H67c-2,0-2.5-0.7-3.4-2.2c-2.4-3.8-6.4-6.3-11.6-6.3
	C42.4,195.7,36.2,202.2,36.2,209.8z M97.5,209.8c0,7.7,6.2,14.2,15.8,14.2c5.2,0,9.2-2.5,11.6-6.3c0.9-1.5,1.4-2.2,3.4-2.2h8.8
	c1.6,0,2.3,1.4,2,2.6c-1.9,7.8-11.1,14.6-25.8,14.8c-17.2,0.2-28.5-10.1-28.5-23.1s11.2-23.4,28.5-23.1c14.7,0.2,23.9,7,25.8,14.8
	c0.3,1.2-0.4,2.6-2,2.6h-8.8c-2,0-2.5-0.7-3.4-2.2c-2.4-3.8-6.4-6.3-11.6-6.3C103.6,195.7,97.5,202.2,97.5,209.8z"/>
</svg>
