<svg width="66" height="19" viewBox="0 0 66 19" fill="none" xmlns="http://www.w3.org/2000/svg">
<g clip-path="url(#clip0_2521_255)">
<path d="M5.63573 0.501697C4.49527 0.299448 3.41098 1.0635 3.20873 2.20397L0.759266 16.0805C0.557016 17.221 1.32107 18.3109 2.46153 18.5131C2.58513 18.5356 2.70873 18.5469 2.82671 18.5469C3.82672 18.5469 4.71437 17.8277 4.88853 16.8109L7.338 2.92869C7.54025 1.78823 6.77619 0.703947 5.63573 0.501697Z" fill="black"/>
<path d="M12.4337 0.855469H12.4281C11.2707 0.855469 10.3325 1.79368 10.3325 2.951C10.3325 4.10832 11.2707 5.04653 12.4281 5.04653H24.8945C26.0518 5.04653 26.99 4.10832 26.99 2.951C26.99 1.79368 26.0518 0.855469 24.8945 0.855469H12.4337Z" fill="black"/>
<path d="M44.0737 0.86084H31.6016C30.4443 0.86084 29.5061 1.79905 29.5061 2.95637C29.5061 4.11369 30.4443 5.0519 31.6016 5.0519H44.0737C45.231 5.0519 46.1692 4.11369 46.1692 2.95637C46.1692 1.79905 45.231 0.86084 44.0737 0.86084Z" fill="black"/>
<path d="M41.6972 14.3164H29.2308C28.0735 14.3164 27.1353 15.2546 27.1353 16.4119C27.1353 17.5693 28.0735 18.5075 29.2308 18.5075H41.6972C42.8545 18.5075 43.7928 17.5693 43.7928 16.4119C43.7928 15.2546 42.8545 14.3164 41.6972 14.3164Z" fill="black"/>
<path d="M42.9392 7.59131H30.3604C29.2031 7.59131 28.2649 8.52952 28.2649 9.68684C28.2649 10.8442 29.2031 11.7824 30.3604 11.7824H42.9392C44.0965 11.7824 45.0348 10.8442 45.0348 9.68684C45.0348 8.52952 44.0965 7.59131 42.9392 7.59131Z" fill="black"/>
<path d="M63.456 0.86084H50.9896C49.8323 0.86084 48.894 1.79905 48.894 2.95637C48.894 4.11369 49.8323 5.0519 50.9896 5.0519H63.456C64.6133 5.0519 65.5515 4.11369 65.5515 2.95637C65.5515 1.79905 64.6133 0.86084 63.456 0.86084Z" fill="black"/>
<path d="M62.2486 7.59156H49.7372C48.5799 7.59156 47.6417 8.52977 47.6417 9.68709C47.6417 10.8444 48.5799 11.7826 49.7372 11.7826H59.7654L59.3216 14.3164H48.608C47.4507 14.3164 46.5125 15.2546 46.5125 16.4119C46.5125 17.5692 47.4507 18.5074 48.608 18.5074H60.9789C62.0801 18.5074 62.9958 17.5355 63.1587 16.704C63.1587 16.704 64.2767 10.3669 64.361 9.78259C64.5295 8.63651 63.4059 7.58594 62.2486 7.58594" fill="black"/>
<path d="M23.6697 7.59131H11.1584C10.0572 7.59131 9.25384 8.43963 9.06844 9.5183C9.05721 9.56886 7.89989 16.0858 7.89989 16.0858C7.69764 17.2263 8.4617 18.3162 9.60216 18.5128C9.72576 18.5353 9.84935 18.5465 9.96733 18.5465C10.9673 18.5465 11.8494 17.833 12.0292 16.8161L12.9168 11.788H23.6641C24.8214 11.788 25.7597 10.8498 25.7597 9.69246C25.7597 8.53514 24.8214 7.59693 23.6641 7.59693" fill="black"/>
</g>
<defs>
<clipPath id="clip0_2521_255">
<rect width="64.8266" height="18.0789" fill="black" transform="translate(0.726074 0.467285)"/>
</clipPath>
</defs>
</svg>
