<svg width="195" height="31" viewBox="0 0 195 31" fill="none" xmlns="http://www.w3.org/2000/svg">
<path d="M0.179688 4.50392C0.179688 3.60728 0.435852 2.83576 1.2044 2.06721C1.97295 1.29866 2.61336 1.04248 3.76916 1.04248C4.92496 1.04248 5.69356 1.29866 6.20592 2.06721C6.97447 2.83576 7.35878 3.60728 7.35878 4.50392C7.35878 5.40056 6.97447 6.42826 6.20592 7.06872C5.69356 7.83727 4.79687 8.09345 3.76916 8.09345C2.74145 8.09345 1.84485 7.83727 1.2044 7.06872C0.563943 6.30017 0.179688 5.52865 0.179688 4.50392ZM6.9774 12.0702V29.8928H0.695025V12.0702H6.9774Z" fill="white"/>
<path d="M12.2327 12.0691H18.5151V14.2496C18.8994 13.7373 19.4117 13.2249 19.9241 12.8406C20.4364 12.5845 20.9488 12.3283 21.3331 12.0721C21.8454 11.944 22.3578 11.8159 22.7421 11.8159H24.0231C24.9197 11.8159 25.9474 11.944 26.716 12.2002C27.6126 12.4564 28.384 12.9687 29.1526 13.6092C29.9211 14.3777 30.3054 15.1493 30.5616 15.9178C30.6897 16.6864 30.8179 17.4579 30.8179 18.4826V29.8946H24.5353V19.1231C24.5353 18.6107 24.2791 17.8422 23.7668 17.583C23.5106 17.3268 23.2544 17.0706 22.7421 17.0706C22.3578 17.0706 21.9735 16.9425 21.7174 16.9425C21.205 16.9425 20.8207 16.9425 20.3084 17.1987C19.9241 17.3268 19.5398 17.4549 19.2836 17.7111C19.0275 17.9673 18.7713 18.4796 18.5151 18.992C18.387 19.5044 18.2589 20.0167 18.2589 20.5321V30.0197H11.9766C12.2327 29.8917 12.2327 12.0691 12.2327 12.0691Z" fill="white"/>
<path d="M43.2645 17.196V29.7609H36.9822V17.196H34.9297V12.0664H36.9822V6.29639H43.2645V12.0664H46.854V17.196H43.2645Z" fill="white"/>
<path d="M68.908 22.0705H55.7027C55.7027 22.4547 55.7027 23.0952 55.9589 23.6105C56.087 24.1229 56.3432 24.6353 56.8556 25.0195C56.9837 25.1476 57.3679 25.4038 57.7521 25.5319C58.1364 25.66 58.7769 25.7881 59.4203 25.7881H60.1889C60.5732 25.7881 61.0855 25.66 61.4698 25.4038C61.5979 25.2757 61.8541 25.1476 61.9822 25.0195C62.1103 24.8914 62.3664 24.6353 62.4945 24.251H68.5209C68.3928 24.7634 68.2646 25.4038 67.7523 25.9192C67.4961 26.6877 66.9837 27.2001 66.3433 27.9716C65.7028 28.7431 64.8031 29.1244 63.7784 29.6398C62.6256 30.1521 61.2136 30.4083 59.2893 30.4083C58.1365 30.4083 56.8526 30.2802 55.5717 29.8959C54.2908 29.5117 53.135 28.7431 51.9822 27.7154C51.726 27.4592 51.4698 26.9469 51.0855 26.6907C50.7012 26.4345 50.5732 25.794 50.1889 25.2817C49.9327 24.7693 49.8046 24.1289 49.4203 23.3573C49.2923 22.5888 49.1641 21.9483 49.1641 21.0487C49.1641 19.6397 49.4203 18.2277 49.9326 17.0749C50.445 15.9221 51.0854 14.8944 51.857 14.2539C52.6255 13.4854 53.5252 12.973 54.678 12.3296C55.8308 11.8172 57.2428 11.561 59.0361 11.561C60.0608 11.561 61.2166 11.6891 62.4975 11.9453C63.7784 12.2015 64.8062 12.97 65.959 13.9977C66.7276 14.5101 67.1118 15.2787 67.368 15.9221C67.7523 16.6906 68.1365 17.203 68.2646 17.9745C68.3927 18.7431 68.5208 19.2554 68.6489 19.8989C68.7769 20.5393 68.6489 21.0517 68.6489 21.567C68.905 21.4389 68.905 22.0794 68.905 22.0794L68.908 22.0705ZM63.138 18.3528C63.138 18.0967 63.0099 17.5843 62.7537 17.3281C62.6256 17.0719 62.3694 16.5596 61.9851 16.4315C61.6008 16.0472 61.0885 15.6629 60.5761 15.6629C60.0637 15.5348 59.6795 15.5348 59.2953 15.5348C58.2705 15.5348 57.2429 15.791 56.7305 16.5596C56.6024 16.8157 56.3462 17.0719 56.2181 17.4562C56.09 17.7124 55.9619 18.2248 55.9619 18.4809L63.141 18.3528H63.138Z" fill="white"/>
<path d="M73.5234 12.0691H79.8058V14.8901C80.062 14.3777 80.5744 13.7373 80.9587 13.4811C81.3429 13.0968 81.8553 12.7126 82.3677 12.4564C82.88 12.2002 83.3924 12.0721 83.9077 11.944C84.4231 11.8159 85.0606 11.8159 85.5759 11.8159H86.8568V17.8422C86.7287 17.8422 86.4726 17.7141 85.9602 17.4579C85.5759 17.3298 84.9355 17.2017 84.0359 17.2017C83.6516 17.2017 83.1392 17.2017 82.6269 17.3298C82.1145 17.4579 81.6021 17.7141 81.2179 18.0983C80.9617 18.3545 80.7055 18.8669 80.4493 19.1231C80.3212 19.5073 80.1931 19.8916 80.065 20.2759C80.065 20.6602 79.9369 21.0444 79.9369 21.3006V29.8917H73.6545L73.5263 12.0691H73.5234Z" fill="white"/>
<path d="M90.3281 4.5031C90.3281 3.47838 90.5843 2.57876 91.3528 1.9383C92.1214 1.16976 92.7618 0.913574 93.9176 0.913574C95.0734 0.913574 95.8419 1.16976 96.4824 1.9383C97.1228 2.70685 97.5071 3.47838 97.5071 4.5031C97.5071 5.52783 97.1229 6.42745 96.3544 7.06791C95.5858 7.70836 94.9453 8.09263 93.7895 8.09263C92.6337 8.09263 92.1214 7.83645 91.3528 7.06791C90.5843 6.42745 90.3281 5.52783 90.3281 4.5031ZM96.9948 12.0694V29.892H90.7124V12.0694H96.9948Z" fill="white"/>
<path d="M102.242 0.78418H108.525V14.3767C108.781 14.1205 109.037 13.8644 109.421 13.4801C109.677 13.2239 110.19 12.9677 110.574 12.7115C111.086 12.3273 111.855 12.1992 112.498 11.943C113.267 11.8149 113.779 11.8149 114.167 11.8149C115.448 11.8149 116.475 11.943 117.372 12.3273C118.268 12.7115 118.781 13.2239 119.424 13.7363C120.193 14.5048 120.705 15.2763 120.833 16.173C120.961 17.0696 121.089 17.8411 121.089 18.7378V30.1498H114.807V20.6621C114.807 19.8936 114.807 19.3812 114.679 18.7378C114.679 18.2254 114.423 17.585 113.91 17.3288C113.654 17.0726 113.398 16.8164 112.886 16.5602C112.501 16.5602 112.117 16.4321 111.861 16.4321C111.605 16.4321 111.092 16.4321 110.708 16.5602C110.324 16.6883 109.94 16.8164 109.555 17.0726C109.299 17.3288 109.043 17.8411 108.787 18.2254C108.531 18.6097 108.531 19.2502 108.531 19.8936V29.3813H102.248V0.78418H102.242Z" fill="white"/>
<path d="M146.095 20.7878C146.095 21.9406 145.967 23.0964 145.326 24.2492C144.942 25.4021 144.173 26.4298 143.146 27.3264C141.993 28.6073 140.837 29.5069 139.428 29.7631C138.147 30.1474 136.735 30.2755 135.198 30.2755C133.917 30.2755 132.633 30.1474 131.224 29.7631C129.815 29.3789 128.532 28.6103 127.379 27.4545C126.354 26.4298 125.71 25.4021 125.198 24.3773C124.814 23.2245 124.43 22.0687 124.43 20.9159C124.43 19.3758 124.686 18.0949 125.326 16.9421C125.839 15.9174 126.479 15.0178 127.251 14.3773C128.019 13.6088 128.919 12.9683 130.328 12.3249C131.609 11.5563 133.149 11.4282 135.201 11.4282C136.226 11.4282 137.126 11.4282 137.894 11.6844C138.663 11.8125 139.303 12.0687 140.075 12.453C140.843 12.8372 141.355 12.9653 141.743 13.4777C142.255 13.7339 142.639 14.2462 143.024 14.5024C143.792 15.271 144.305 15.9114 144.948 17.0672C145.589 17.9638 146.101 19.2477 146.101 20.7848L146.095 20.7878ZM135.454 16.6829C134.942 16.6829 134.43 16.811 133.914 16.9391C133.399 17.0672 132.89 17.4515 132.633 17.8358C132.249 18.22 131.865 18.7324 131.737 19.2448C131.609 19.7571 131.481 20.2695 131.481 20.7848C131.481 21.3002 131.609 21.8096 131.737 22.3249C131.865 22.8373 132.249 23.2215 132.633 23.6058C133.402 24.3744 134.302 24.7586 135.454 24.7586C136.607 24.7586 137.507 24.3744 138.275 23.6058C138.66 23.2215 139.044 22.8373 139.172 22.3249C139.3 21.8125 139.428 21.3002 139.428 20.7848C139.428 20.4006 139.3 19.7601 139.172 19.3758C139.044 18.9916 138.66 18.3511 138.275 17.9668C137.891 17.7106 137.379 17.1983 136.994 17.0702C136.482 16.814 135.97 16.6859 135.454 16.6859V16.6829Z" fill="white"/>
<path d="M157.635 17.196V29.7609H151.224V17.196H149.172V12.0664H151.224V6.29639H157.507V12.0664H161.096V17.196H157.635Z" fill="white"/>
<path d="M183.28 22.0705H170.203C170.203 22.4547 170.203 23.0952 170.459 23.6105C170.587 24.1229 170.843 24.6353 171.355 25.0195C171.484 25.1476 171.868 25.4038 172.252 25.5319C172.636 25.66 173.277 25.7881 173.92 25.7881H174.689C174.689 25.7881 175.585 25.66 175.97 25.4038C176.098 25.2757 176.354 25.1476 176.482 25.0195C176.61 24.8914 176.866 24.6353 176.994 24.251H183.021C182.893 24.7634 182.765 25.4038 182.252 25.9192C181.996 26.6877 181.484 27.2001 180.843 27.9716C180.203 28.7401 179.303 29.1244 178.278 29.6398C177.126 30.1521 175.713 30.4083 173.789 30.4083C172.636 30.4083 171.352 30.2802 170.072 29.8959C168.791 29.5117 167.635 28.7431 166.482 27.7154C166.226 27.4592 165.97 26.9469 165.585 26.6907C165.201 26.4345 165.073 25.794 164.689 25.2817C164.305 24.7693 164.304 24.1289 163.92 23.3573C163.792 22.5888 163.664 21.9483 163.664 21.0487C163.664 19.6397 163.92 18.2277 164.433 17.0749C164.945 15.9221 165.585 14.8944 166.357 14.2539C167.126 13.6135 168.025 12.973 169.178 12.3296C170.331 11.8172 171.743 11.561 173.536 11.561C174.561 11.561 175.716 11.6891 176.997 11.9453C178.278 12.2015 179.306 12.97 180.459 13.9977C181.227 14.5101 181.612 15.2787 181.868 15.9221C182.252 16.6906 182.636 17.203 182.764 17.9745C182.893 18.7461 183.021 19.2554 183.149 19.8989C183.277 20.5423 183.149 21.0517 183.149 21.567C183.277 21.6951 183.277 22.0794 183.277 22.0794L183.28 22.0705ZM177.51 18.3528C177.51 18.0967 177.382 17.5843 177.126 17.3281C176.997 17.0719 176.741 16.5596 176.357 16.4315C175.973 16.0472 175.46 15.6629 174.948 15.6629C174.436 15.5348 174.051 15.5348 173.667 15.5348C172.642 15.5348 171.615 15.791 171.102 16.5596C170.974 16.8157 170.718 17.0719 170.59 17.4562C170.462 17.7124 170.334 18.2248 170.334 18.4809L177.513 18.3528H177.51Z" fill="white"/>
<path d="M194.181 0.78418V29.7626H187.898V0.78418H194.181Z" fill="white"/>
</svg>
