<svg width="82" height="69" viewBox="0 0 82 69" fill="none" xmlns="http://www.w3.org/2000/svg">
<path d="M78.8614 44.5379V45.661C77.8516 45.7771 76.8358 45.9499 75.817 45.9976C73.6961 46.0959 72.3199 47.0372 71.3815 49.0271C67.7533 56.7334 62.0159 62.423 54.1428 65.6551C41.3277 70.9158 29.4063 69.051 18.599 60.4123C14.7622 57.3441 11.8549 53.4686 9.84714 48.9854C8.9654 47.0164 7.58615 46.0899 5.49201 45.9946C4.46132 45.9469 3.43958 45.7652 2.36719 45.6371V44.5171C3.15956 44.5171 3.93708 44.5171 4.71159 44.5171C6.7253 44.5171 8.73604 44.5379 10.7497 44.5052C11.3455 44.4962 11.6046 44.6928 11.8281 45.2588C15.9091 55.6342 23.4129 62.143 34.2649 64.547C49.0639 67.8267 64.0028 59.5812 69.3261 45.3929C69.5584 44.7762 69.8295 44.5082 70.5295 44.5201C73.2909 44.5648 76.0523 44.5379 78.8644 44.5379H78.8614Z" fill="white"/>
<path d="M78.8715 23.4337V24.4734C78.5439 24.4912 78.2401 24.521 77.9362 24.521C75.4846 24.524 73.03 24.5032 70.5784 24.5389C69.923 24.5478 69.6013 24.3721 69.3451 23.7167C65.3952 13.6571 58.1297 7.28235 47.6799 4.66691C32.9554 0.979073 17.4503 9.14116 12.0377 23.3384C11.6594 24.3334 11.1978 24.6402 10.1522 24.5955C7.89121 24.5002 5.62429 24.5657 3.36035 24.5657C3.05055 24.5657 2.7437 24.5657 2.3624 24.5657C2.33857 24.1785 2.32071 23.8776 2.29688 23.4814C3.61055 23.3116 4.87066 23.109 6.14263 22.9988C7.85548 22.8499 8.93675 21.9681 9.65465 20.4221C12.6365 13.9967 17.1942 8.99519 23.2621 5.31928C35.8598 -2.31257 52.9465 -0.519295 63.6942 9.56713C67.0425 12.7098 69.7026 16.3232 71.6121 20.4847C72.333 22.0515 73.4649 22.8558 75.1718 22.9839C76.3872 23.0763 77.5966 23.2729 78.8686 23.4308L78.8715 23.4337Z" fill="white"/>
<path d="M38.6119 37.2887C40.1728 37.2887 41.7039 37.2887 43.2351 37.2887C44.4623 37.2887 45.6866 37.2917 46.9139 37.2887C47.5454 37.2857 48.0787 37.0712 48.0787 36.3533C48.0787 35.6384 47.5633 35.415 46.9199 35.415C44.9062 35.412 42.8924 35.4358 40.8817 35.3882C39.6068 35.3584 38.7012 34.56 38.3855 33.3357C38.0965 32.2097 38.5255 30.9705 39.5115 30.3718C39.9226 30.1215 40.4439 29.9368 40.9175 29.9279C43.6849 29.8832 46.4522 29.8981 49.2195 29.8951C49.3059 29.8951 49.3923 29.9488 49.5383 29.9964V31.7778C49.1868 31.7778 48.8532 31.7778 48.5196 31.7778C46.2229 31.7778 43.9291 31.7778 41.6324 31.7837C41.0366 31.7837 40.423 31.8523 40.4259 32.6327C40.4259 33.3893 41.0009 33.5055 41.6205 33.5055C43.4763 33.5055 45.3321 33.4936 47.1879 33.5115C49.0795 33.5294 50.2264 34.6256 50.2085 36.3682C50.1907 38.1198 49.0438 39.1981 47.1552 39.2071C44.3312 39.216 41.5043 39.2071 38.6148 39.2071V37.2917L38.6119 37.2887Z" fill="white"/>
<path d="M22.8312 39.19V37.2925C23.987 37.2925 25.1101 37.2925 26.2302 37.2925C27.8328 37.2925 29.4354 37.2925 31.038 37.2925C31.6904 37.2925 32.2773 37.1644 32.2803 36.3572C32.2832 35.5499 31.6993 35.4188 31.044 35.4188C29.0958 35.4188 27.1477 35.4367 25.1995 35.4009C23.8114 35.3741 22.8253 34.5013 22.5542 33.1638C22.304 31.9246 22.9355 30.6943 24.1211 30.1492C24.3445 30.0449 24.5978 29.9466 24.8361 29.9466C27.7822 29.9317 30.7312 29.9377 33.7339 29.9377V31.731C33.4122 31.7459 33.0815 31.7757 32.7509 31.7757C30.615 31.7786 28.4762 31.7757 26.3404 31.7757C26.1199 31.7757 25.8995 31.7667 25.682 31.7757C25.1369 31.8025 24.6364 31.9574 24.6305 32.6038C24.6245 33.277 25.0893 33.5034 25.7059 33.5034C27.6541 33.5034 29.6022 33.4855 31.5504 33.5123C33.7547 33.5421 35.0476 35.5975 34.148 37.6053C33.725 38.5466 32.9803 39.1543 31.9705 39.1722C28.9588 39.2258 25.9471 39.193 22.8312 39.193V39.19Z" fill="white"/>
<path d="M0 29.887C1.54901 29.6249 2.80017 29.7411 3.91129 31.0488C5.45434 32.8629 7.23564 34.4715 8.9187 36.1665C9.08849 36.3363 9.27319 36.4912 9.59789 36.7831V29.8483H11.6295V39.1751C10.289 39.2943 9.04685 39.4879 7.93871 38.1891C6.39268 36.378 4.6113 34.7694 2.92825 33.0774C2.69589 32.845 2.44271 32.6306 2.05248 32.2701V39.1721H0V29.887Z" fill="white"/>
<path d="M79.1955 36.7397V29.8407H81.1793V39.1794C79.8597 39.2777 78.6563 39.4892 77.5392 38.25C75.6923 36.2095 73.6309 34.3656 71.6053 32.3847V39.1705H69.5469V29.8496C71.0393 29.7096 72.3053 29.6798 73.4552 31.0054C75.168 32.9834 77.1579 34.726 79.1984 36.7368L79.1955 36.7397Z" fill="white"/>
<path d="M52.7295 39.175C54.3381 36.5953 55.8752 34.1259 57.4153 31.6564C57.5642 31.4181 57.7191 31.1798 57.8681 30.9415C58.5681 29.8274 59.3158 29.5027 60.564 29.8125C60.7487 29.8571 60.9512 30.021 61.0555 30.1848C62.9232 33.1518 64.7761 36.1277 66.7213 39.2435C65.914 39.2435 65.2318 39.3121 64.5735 39.2138C64.2786 39.1691 63.9212 38.8444 63.7901 38.5554C63.4028 37.7184 62.819 37.492 61.9223 37.5337C60.2631 37.6111 58.595 37.5396 56.9298 37.5724C56.6319 37.5784 56.1463 37.7243 56.0718 37.9269C55.4641 39.5682 54.1683 39.327 52.7266 39.175H52.7295ZM57.3677 35.7285H62.0236C61.2342 34.4446 60.5133 33.2709 59.7269 31.993C58.9166 33.2769 58.1868 34.4357 57.3706 35.7285H57.3677Z" fill="white"/>
<path d="M18.4032 29.834V39.1906H16.3984V29.834H18.4032Z" fill="white"/>
</svg>
