<svg width="48" height="19" viewBox="0 0 48 19" fill="none" xmlns="http://www.w3.org/2000/svg">
<path d="M13.3118 5.4393C13.5928 5.22857 13.6396 4.83052 13.4289 4.56126C13.2299 4.3037 12.8553 4.23346 12.586 4.42077L1.11292 12.5807C0.843654 12.7914 0.796825 13.1895 1.00755 13.4704C1.20658 13.728 1.5695 13.7865 1.83877 13.6109L13.3118 5.451V5.4393Z" fill="black"/>
<path d="M14.8223 7.56998C15.1032 7.37096 15.1735 6.97291 14.9744 6.69194C14.7754 6.41097 14.3774 6.34072 14.0964 6.53975L5.59697 12.5807C5.316 12.7797 5.24575 13.1777 5.44478 13.4587C5.6438 13.7397 6.04184 13.8099 6.32282 13.6109L14.8223 7.56998Z" fill="black"/>
<path d="M16.3306 9.68912C16.6115 9.4901 16.6818 9.09205 16.4828 8.81108C16.2837 8.53011 15.8857 8.45986 15.6047 8.65889L10.0906 12.5808C9.80965 12.7798 9.73941 13.1779 9.93843 13.4588C10.1375 13.7398 10.5355 13.8101 10.8165 13.611L16.3306 9.68912Z" fill="black"/>
<path d="M18.8372 0.732955C18.6382 0.451982 18.2402 0.381739 17.9592 0.580761C17.6782 0.779784 17.608 1.17783 17.807 1.4588L18.9543 3.0744L18.4509 3.43732C18.1699 3.63634 18.0997 4.03439 18.2987 4.31536C18.4977 4.59633 18.8958 4.66658 19.1767 4.46755L19.6802 4.10463L19.9845 4.5378C21.0733 6.08315 20.7104 8.20216 19.1885 9.30263L14.5758 12.5807C14.3065 12.7914 14.2597 13.1894 14.4704 13.4704C14.6695 13.728 15.0324 13.7865 15.3017 13.6109L19.9026 10.3329C22.0099 8.83434 22.5133 5.90754 21.0148 3.80024L18.8255 0.732955H18.8372Z" fill="black"/>
<path d="M37.9274 4.40384C37.8455 3.47898 38.0211 2.5424 38.4659 1.72289C39.1684 0.844852 40.2689 0.376564 41.3927 0.481929C42.0015 0.481929 42.5986 0.563879 43.1722 0.751195C43.5 0.856559 43.7342 1.16095 43.7342 1.51216C43.7576 1.93362 43.4415 2.28484 43.0318 2.31996C42.8327 2.31996 42.0601 2.20289 41.8844 2.20289C40.222 2.20289 40.0581 3.12776 40.0581 4.61457V5.60969H41.381C41.8962 5.60969 42.6688 5.60969 42.6688 6.37065C42.6688 7.17845 41.8376 7.17845 41.381 7.17845H40.0581V16.8135C40.0581 17.5159 40.0347 17.9842 39.742 18.2535C39.543 18.4408 39.262 18.5462 38.9811 18.5462C38.7001 18.5462 38.4308 18.4408 38.2201 18.2535C37.9274 17.9608 37.9274 17.5159 37.9274 16.8135V7.17845H36.7918C36.546 7.17845 35.6211 7.17845 35.6211 6.37065C35.6211 5.60969 36.546 5.60969 36.8386 5.60969H37.9391V4.41555L37.9274 4.40384Z" fill="black"/>
<path d="M46.2745 3.20958C45.6189 3.20958 45.1038 2.67105 45.1038 2.02716C45.1038 2.02716 45.1038 2.02715 45.1038 2.01545C45.1038 1.37155 45.6072 0.856434 46.2394 0.844727C46.2394 0.844727 46.2628 0.844727 46.2745 0.844727C46.9184 0.844727 47.4452 1.37155 47.4452 2.01545C47.4452 2.67105 46.9301 3.19788 46.2745 3.20958ZM47.3515 16.7899C47.3867 17.1412 47.3515 17.5041 47.2579 17.8436C47.1174 18.2651 46.7194 18.5343 46.2862 18.5226C45.2325 18.5226 45.2091 17.5509 45.2091 16.7899V7.03784C45.2091 6.27687 45.2325 5.91395 45.5018 5.62127C45.7125 5.41054 46.0052 5.29347 46.3096 5.30517C46.6842 5.25834 47.0472 5.44566 47.2111 5.79688C47.3398 6.19492 47.3867 6.61638 47.3515 7.03784V16.7899Z" fill="black"/>
<path d="M31.769 5.59768C31.5114 5.89036 31.4997 6.24158 31.4997 6.80352V14.4015C31.4997 15.5722 30.5514 16.5322 29.3807 16.5439C28.21 16.5439 27.25 15.5956 27.2383 14.4249V6.81523C27.2617 6.46401 27.2266 6.1128 27.1095 5.785C26.9573 5.4689 26.6061 5.28158 26.2549 5.31671C25.9739 5.31671 25.7046 5.42207 25.5056 5.60939C25.248 5.90207 25.2363 6.25328 25.2363 6.81523V14.46C25.2832 16.7429 27.168 18.5576 29.4509 18.5224C31.6753 18.4756 33.4665 16.6961 33.5133 14.4717V6.81523C33.5367 6.46401 33.5016 6.1128 33.3845 5.785C33.2324 5.4689 32.8811 5.28158 32.5299 5.31671C32.2489 5.31671 31.9797 5.42207 31.7807 5.60939L31.769 5.59768Z" fill="black"/>
</svg>
