<svg width="274" height="23" viewBox="0 0 274 23" fill="none" xmlns="http://www.w3.org/2000/svg">
<path d="M79.8307 0.921387C83.3487 0.972027 86.6612 1.44864 89.6103 3.31639C92.7649 5.3152 94.4271 8.18683 94.2752 11.9521C94.1203 15.8276 92.1721 18.6307 88.7613 20.3882C85.4548 22.0951 81.8801 22.4318 78.231 22.1934C75.8569 22.0385 73.5363 21.5947 71.3945 20.4985C67.6084 18.5652 65.5232 15.5148 65.6543 11.1985C65.7853 6.97146 68.1267 4.19814 71.8354 2.47635C74.3972 1.28779 77.1408 0.951175 79.8277 0.921387H79.8307ZM84.9275 11.6095C84.9275 9.81031 84.6952 8.16597 83.876 6.65867C83.0747 5.18413 81.9308 4.19813 80.1613 4.14154C78.3591 4.08196 77.1497 5.02328 76.2501 6.47101C75.4368 7.78171 75.1002 9.2473 75.0139 10.7635C74.8828 13.0692 75.1419 15.3123 76.5331 17.2545C78.2638 19.6703 81.618 19.6316 83.3338 17.2068C84.5432 15.497 84.8471 13.5309 84.9245 11.6125L84.9275 11.6095Z" fill="white"/>
<path d="M259.385 0.921387C262.551 0.975006 265.819 1.44268 268.744 3.25383C271.971 5.25265 273.666 8.15109 273.499 11.9789C273.326 15.9468 271.3 18.7678 267.773 20.4895C263.99 22.3364 259.966 22.545 255.867 22.0236C253.374 21.7049 251.026 20.9602 248.941 19.4976C243.332 15.5655 243.219 6.49782 250.314 2.83679C253.105 1.39502 256.102 0.957133 259.388 0.921387H259.385ZM264.145 11.4219C264.172 9.64648 263.88 7.94256 262.96 6.39951C261.202 3.45044 257.696 3.31937 255.712 6.11354C253.758 8.86601 253.701 14.2101 255.596 17.0221C257.383 19.6733 260.755 19.7508 262.608 17.1383C263.814 15.4374 264.112 13.4564 264.145 11.4219Z" fill="white"/>
<path d="M180.133 4.4608V1.40747H200.261V4.42506H195.379C197.675 8.64611 199.898 12.7361 202.203 16.972C204.464 12.7629 206.66 8.68186 208.909 4.49358H204.947V1.39258H218.772V4.45783C217.607 4.45783 216.442 4.51741 215.289 4.43698C214.464 4.38038 214.044 4.65443 213.654 5.39617C210.907 10.6122 208.098 15.7954 205.325 20.9995C205.072 21.4761 204.789 21.6727 204.223 21.6637C201.044 21.628 197.869 21.6339 194.691 21.6518C194.244 21.6518 194.02 21.4999 193.809 21.1126C190.904 15.7626 187.973 10.4275 185.072 5.07445C184.825 4.6157 184.553 4.42506 184.023 4.44293C182.739 4.48166 181.455 4.45485 180.136 4.45485L180.133 4.4608Z" fill="white"/>
<path d="M29.7078 4.46125H25.7399V1.396H39.535V4.45828C38.2571 4.45828 36.997 4.49402 35.7399 4.44338C35.1501 4.41955 34.8552 4.63402 34.5871 5.14043C31.7483 10.4696 28.8796 15.7839 26.0408 21.1131C25.8144 21.5391 25.5552 21.6672 25.0935 21.6642C21.915 21.6433 18.7366 21.6404 15.5582 21.6582C15.0666 21.6582 14.7985 21.5033 14.5573 21.0654C11.6648 15.7363 8.74251 10.4249 5.85302 5.09575C5.58492 4.59828 5.28703 4.43146 4.73594 4.44933C3.47588 4.49103 2.21583 4.46125 0.914062 4.46125V1.40494H20.9976V4.43146H16.1629C18.4596 8.65846 20.6907 12.7633 22.9845 16.9814C25.2395 12.7842 27.4349 8.69422 29.7078 4.46423V4.46125Z" fill="white"/>
<path d="M149.957 12.2547H152.93V21.5666H125.108V18.5222H129.692V4.47389H125.102V1.41162H143.606V4.40836H139.09V18.3643C139.114 18.3852 139.147 18.4448 139.183 18.4418C140.925 18.4328 142.68 18.558 144.405 18.3762C147.562 18.0426 149.522 15.9544 149.886 12.8058C149.904 12.6419 149.927 12.4781 149.957 12.2487V12.2547Z" fill="white"/>
</svg>
