<svg xmlns="http://www.w3.org/2000/svg" viewBox="0 0 1550.91 400.71"><defs><style>.cls-1{fill:#fcfcfc;}</style></defs><g id="Capa_2" data-name="Capa 2"><g id="Capa_1-2" data-name="Capa 1"><path class="cls-1" d="M109.44,102,1,237.63a4.32,4.32,0,0,0,3.37,7H112.82a4.32,4.32,0,0,0,4.33-4.32V104.72A4.33,4.33,0,0,0,109.44,102Z"/><path class="cls-1" d="M287.52,4.44V240.23a4.42,4.42,0,0,0,4.43,4.42h34.76a4.43,4.43,0,0,1,4.42,4.43v80a4.42,4.42,0,0,1-4.42,4.43H292a4.43,4.43,0,0,0-4.43,4.43v44.64A4.43,4.43,0,0,0,292,387h35.59c2.44,0,4.42.76,4.42,3.2v3.68c0,3.67,4.24,3.32,7.13,1.06A232.73,232.73,0,0,0,293.81.41,4.43,4.43,0,0,0,287.52,4.44Z"/><path class="cls-1" d="M69,387h44.41a3.73,3.73,0,0,0,3.73-3.72V337.26a3.73,3.73,0,0,0-3.73-3.72H4.54a3.73,3.73,0,0,0-3.12,5.77,234.22,234.22,0,0,0,58,60.69,3.73,3.73,0,0,0,5.9-3v-6.21A3.73,3.73,0,0,1,69,387Z"/><path class="cls-1" d="M543.26,248.49V178.33L535,177.17a7.25,7.25,0,0,1-3.34-1.49,3.74,3.74,0,0,1-1.28-3.06v-7.27h12.89v-7.1a36.9,36.9,0,0,1,2.11-12.9,26.63,26.63,0,0,1,6-9.67,26.09,26.09,0,0,1,9.54-6.07,38.35,38.35,0,0,1,18.14-1.7,31.52,31.52,0,0,1,5.09,1.25l-.34,8.92a2.6,2.6,0,0,1-2.18,2.65,26.59,26.59,0,0,1-5.09.41,23.84,23.84,0,0,0-6.69.87,11.75,11.75,0,0,0-5.08,2.93,13.24,13.24,0,0,0-3.22,5.46,27,27,0,0,0-1.12,8.42v6.53h23.06v12.81H561v70.33Z"/><path class="cls-1" d="M630.2,162.87a44.7,44.7,0,0,1,16.9,3.06A36.18,36.18,0,0,1,660,174.61a38.59,38.59,0,0,1,8.22,13.64,57.41,57.41,0,0,1,0,36A39.12,39.12,0,0,1,660,238a36,36,0,0,1-12.89,8.72,48.57,48.57,0,0,1-33.88,0A36.39,36.39,0,0,1,600.28,238,38.76,38.76,0,0,1,592,224.28a57.59,57.59,0,0,1,0-36,38.23,38.23,0,0,1,8.26-13.64,36.56,36.56,0,0,1,12.94-8.68A44.9,44.9,0,0,1,630.2,162.87Zm0,73q11.4,0,17-7.65t5.58-21.85q0-14.22-5.58-21.95t-17-7.73q-11.58,0-17.19,7.73t-5.62,21.95q0,14.21,5.62,21.85T630.2,235.85Z"/><path class="cls-1" d="M704.91,179.81a37.34,37.34,0,0,1,9.58-12.6A20.63,20.63,0,0,1,728,162.62a20.14,20.14,0,0,1,5.13.63,14.49,14.49,0,0,1,4.3,1.85l-1.24,13.39a3.34,3.34,0,0,1-1,1.95,3,3,0,0,1-1.86.53,20.14,20.14,0,0,1-3.55-.45,25.5,25.5,0,0,0-4.88-.46,18.41,18.41,0,0,0-6.56,1.08,15.7,15.7,0,0,0-5.13,3.14,20.81,20.81,0,0,0-4,5,48.78,48.78,0,0,0-3.22,6.78v52.39H688.13v-84.3h10.33c1.88,0,3.17.35,3.89,1a6.36,6.36,0,0,1,1.48,3.59Z"/><path class="cls-1" d="M799.7,207.75a42,42,0,0,0,2.23,12.44,25.59,25.59,0,0,0,5.08,8.72,19.85,19.85,0,0,0,7.6,5.16,27.42,27.42,0,0,0,9.88,1.69,30.13,30.13,0,0,0,9-1.19,41.84,41.84,0,0,0,6.61-2.65q2.8-1.44,4.79-2.64a7.16,7.16,0,0,1,3.64-1.2,3.79,3.79,0,0,1,3.3,1.65l5,6.53a32,32,0,0,1-7.11,6.28,41.9,41.9,0,0,1-8.43,4.18,48.12,48.12,0,0,1-9.17,2.31,63.45,63.45,0,0,1-9.18.7,44.22,44.22,0,0,1-16.24-2.93,36.2,36.2,0,0,1-13-8.64,39.82,39.82,0,0,1-8.6-14.13,56.24,56.24,0,0,1-3.1-19.42,47.54,47.54,0,0,1,2.77-16.36A39.07,39.07,0,0,1,792.8,175a37.35,37.35,0,0,1,12.56-8.88,41,41,0,0,1,16.73-3.27,40.05,40.05,0,0,1,14.38,2.52,31.7,31.7,0,0,1,11.41,7.4,34.08,34.08,0,0,1,7.48,11.94A45,45,0,0,1,858,200.81q0,4.13-.91,5.54a3.63,3.63,0,0,1-3.3,1.4Zm42.39-10.91a26.26,26.26,0,0,0-1.28-8.31,19.42,19.42,0,0,0-3.76-6.69,17,17,0,0,0-6.16-4.46,20.81,20.81,0,0,0-8.47-1.62q-9.66,0-15.2,5.54t-7,15.54Z"/><path class="cls-1" d="M946.8,164.19l-33.88,84.3h-16L863,164.19h14.63a5.53,5.53,0,0,1,3.43,1,4.67,4.67,0,0,1,1.77,2.44l18.68,49.09c.77,2.31,1.46,4.6,2.07,6.85s1.13,4.55,1.57,6.87q.66-3.48,1.61-6.82c.63-2.23,1.34-4.53,2.11-6.9l19-49.09a5,5,0,0,1,1.81-2.48,5.24,5.24,0,0,1,3.23-1Z"/><path class="cls-1" d="M969.36,207.75a42.61,42.61,0,0,0,2.23,12.44,25.61,25.61,0,0,0,5.09,8.72,19.77,19.77,0,0,0,7.6,5.16,27.36,27.36,0,0,0,9.87,1.69,30.08,30.08,0,0,0,9-1.19,41.46,41.46,0,0,0,6.61-2.65c1.88-1,3.47-1.84,4.8-2.64a7.13,7.13,0,0,1,3.63-1.2,3.79,3.79,0,0,1,3.31,1.65l5,6.53a31.79,31.79,0,0,1-7.11,6.28,41.38,41.38,0,0,1-8.43,4.18,47.94,47.94,0,0,1-9.17,2.31,63.32,63.32,0,0,1-9.17.7,44.18,44.18,0,0,1-16.24-2.93,36.23,36.23,0,0,1-13-8.64A39.81,39.81,0,0,1,954.86,224a56,56,0,0,1-3.1-19.42,47.31,47.31,0,0,1,2.77-16.36A39,39,0,0,1,962.46,175,37.35,37.35,0,0,1,975,166.14a41,41,0,0,1,16.74-3.27,40.05,40.05,0,0,1,14.38,2.52,31.58,31.58,0,0,1,11.4,7.4,33.94,33.94,0,0,1,7.48,11.94,45,45,0,0,1,2.69,16.08c0,2.75-.31,4.6-.91,5.54a3.66,3.66,0,0,1-3.31,1.4Zm42.4-10.91a26.26,26.26,0,0,0-1.28-8.31,19.58,19.58,0,0,0-3.76-6.69,17.19,17.19,0,0,0-6.16-4.46,20.88,20.88,0,0,0-8.47-1.62q-9.68,0-15.21,5.54t-7,15.54Z"/><path class="cls-1" d="M1061,179.81a37.47,37.47,0,0,1,9.58-12.6,20.64,20.64,0,0,1,13.48-4.59,20.12,20.12,0,0,1,5.12.63,14.49,14.49,0,0,1,4.3,1.85l-1.24,13.39a3.34,3.34,0,0,1-1,1.95,3,3,0,0,1-1.85.53,20.12,20.12,0,0,1-3.56-.45,25.4,25.4,0,0,0-4.87-.46,18.47,18.47,0,0,0-6.57,1.08,15.7,15.7,0,0,0-5.13,3.14,20.78,20.78,0,0,0-4,5,47.66,47.66,0,0,0-3.23,6.78v52.39h-17.77v-84.3h10.34c1.87,0,3.16.35,3.88,1a6.43,6.43,0,0,1,1.49,3.59Z"/><path class="cls-1" d="M1180,164.19l-46.44,108.27a9,9,0,0,1-2.19,3,6.08,6.08,0,0,1-3.93,1.07h-13.14l15.54-33.72-34.38-78.6h15.45a5.09,5.09,0,0,1,3.43,1,6.44,6.44,0,0,1,1.78,2.44l20.08,47.85c.5,1.37,1,2.74,1.37,4.09s.81,2.74,1.19,4.17c.44-1.43.89-2.84,1.33-4.21s.93-2.76,1.48-4.13l19.26-47.77a5.45,5.45,0,0,1,1.94-2.48,5,5,0,0,1,3-1Z"/><path class="cls-1" d="M1218.52,249.81q-10.5,0-16.15-5.91t-5.67-16.65V178.16h-9.25a3.69,3.69,0,0,1-2.56-.95,3.59,3.59,0,0,1-1.08-2.85v-7.19l13.64-2,3.88-24.38a4.77,4.77,0,0,1,1.41-2.28,3.9,3.9,0,0,1,2.64-.86h9.09v27.68h23.39v12.81h-23.39V226c0,3,.74,5.35,2.24,7a7.75,7.75,0,0,0,6,2.39,10.44,10.44,0,0,0,3.55-.54,15.85,15.85,0,0,0,2.56-1.15c.72-.42,1.33-.8,1.86-1.16a2.51,2.51,0,0,1,3.92,1.12l5.3,8.67a28.71,28.71,0,0,1-9.76,5.58A35,35,0,0,1,1218.52,249.81Z"/><path class="cls-1" d="M1269.68,174.19a45,45,0,0,1,11.4-8.22,32,32,0,0,1,14.47-3.1,30.09,30.09,0,0,1,12.19,2.32,24.43,24.43,0,0,1,8.84,6.53,28.17,28.17,0,0,1,5.41,10.12,44.18,44.18,0,0,1,1.82,13v53.64h-17.69V194.85q0-8.5-3.92-13.22t-12-4.71a23,23,0,0,0-11,2.73,37.76,37.76,0,0,0-9.54,7.44v61.4h-17.77V126.18h17.77Z"/><path class="cls-1" d="M1366.12,138.74a11.21,11.21,0,0,1-.95,4.55,12,12,0,0,1-2.6,3.76,12.78,12.78,0,0,1-3.84,2.56,11.68,11.68,0,0,1-4.67.95,10.92,10.92,0,0,1-4.51-.95,12,12,0,0,1-3.68-2.56,13.05,13.05,0,0,1-2.52-3.76,11.21,11.21,0,0,1-.95-4.55,11.42,11.42,0,0,1,.95-4.63,13.05,13.05,0,0,1,2.52-3.76,12.22,12.22,0,0,1,3.68-2.56,10.92,10.92,0,0,1,4.51-1,11.68,11.68,0,0,1,4.67,1,13,13,0,0,1,3.84,2.56,12,12,0,0,1,2.6,3.76A11.42,11.42,0,0,1,1366.12,138.74Zm-3,25.45v84.3h-17.77v-84.3Z"/><path class="cls-1" d="M1402.16,175.35a54.44,54.44,0,0,1,5.65-5.08,38.61,38.61,0,0,1,6.25-3.93,33.56,33.56,0,0,1,7-2.56,34.4,34.4,0,0,1,8.1-.91,30,30,0,0,1,12.19,2.32,24.26,24.26,0,0,1,8.84,6.53,28.19,28.19,0,0,1,5.42,10.12,44.18,44.18,0,0,1,1.81,13v53.64h-17.68V194.85q0-8.5-3.93-13.22t-11.94-4.71a22.94,22.94,0,0,0-11,2.73,38,38,0,0,0-9.55,7.44v61.4h-17.76v-84.3h10.74a4.39,4.39,0,0,1,4.63,3.39Z"/><path class="cls-1" d="M1550.91,167.25v6.61q0,3.31-4,4l-8.43,1.41a25.83,25.83,0,0,1,2.15,10.66,25.11,25.11,0,0,1-9.17,19.84,30.55,30.55,0,0,1-10.25,5.45,42.06,42.06,0,0,1-12.89,1.9,45.93,45.93,0,0,1-5.17-.29c-1.68-.19-3.32-.45-4.91-.79a11.54,11.54,0,0,0-3.56,3,5.39,5.39,0,0,0-1.16,3.22,4.33,4.33,0,0,0,2.4,4.05,18.55,18.55,0,0,0,6.32,1.9,79.06,79.06,0,0,0,9,.75q5,.16,10.25.58a95.85,95.85,0,0,1,10.24,1.36,29.45,29.45,0,0,1,9,3.14,16.4,16.4,0,0,1,8.72,15.58,22.72,22.72,0,0,1-2.73,10.66,28.78,28.78,0,0,1-7.89,9.26,40.86,40.86,0,0,1-12.6,6.48,54.19,54.19,0,0,1-16.94,2.44,65.75,65.75,0,0,1-16.41-1.82,38.56,38.56,0,0,1-11.65-4.91,21.1,21.1,0,0,1-6.94-7.15,17,17,0,0,1-2.28-8.43,14.74,14.74,0,0,1,3.77-10.17,25,25,0,0,1,10.2-6.61,14.46,14.46,0,0,1-5.58-4.54,12.68,12.68,0,0,1-2.1-7.61,14,14,0,0,1,2.72-7.76,21.4,21.4,0,0,1,8.18-6.87,26.75,26.75,0,0,1-9.91-9.21,24.53,24.53,0,0,1-3.64-13.43,25.59,25.59,0,0,1,2.44-11.32,24.85,24.85,0,0,1,6.81-8.59,31.41,31.41,0,0,1,10.38-5.46,43,43,0,0,1,13.1-1.9,38.29,38.29,0,0,1,19,4.54Zm-17.85,85.37a6.28,6.28,0,0,0-1.61-4.5,10.72,10.72,0,0,0-4.34-2.64,30.57,30.57,0,0,0-6.37-1.41c-2.42-.3-5-.52-7.72-.66l-8.35-.41q-4.26-.21-8.23-.79a21.92,21.92,0,0,0-6.48,5,9.89,9.89,0,0,0-2.52,6.69,8.81,8.81,0,0,0,1.28,4.63,10.78,10.78,0,0,0,4,3.72,23.56,23.56,0,0,0,6.85,2.48,47.74,47.74,0,0,0,10,.91q11.73,0,17.6-3.64T1533.06,252.62Zm-24.71-47c5.5,0,9.64-1.4,12.39-4.22a15,15,0,0,0,4.14-11q0-6.94-4.14-11c-2.75-2.7-6.89-4.05-12.39-4.05s-9.58,1.35-12.36,4.05-4.17,6.36-4.17,11a17.11,17.11,0,0,0,1.07,6.12,13.5,13.5,0,0,0,3.14,4.84,14.13,14.13,0,0,0,5.17,3.13A20.88,20.88,0,0,0,1508.35,205.6Z"/></g></g></svg>